<svg id="Layer_1" data-name="Layer 1" xmlns="http://www.w3.org/2000/svg" xmlns:xlink="http://www.w3.org/1999/xlink" viewBox="0 0 446.3354 197.8906"><defs><linearGradient id="linear-gradient" x1="318.3311" y1="302.3783" x2="343.2715" y2="292.738" gradientUnits="userSpaceOnUse"><stop offset="0" stop-color="#fff"/><stop offset="1" stop-color="#bbbdbf"/></linearGradient></defs><title>Expresiv new logo</title><path d="M300.0029,189.5371c-45.8808,0-86.3335,37.1973-90.3506,83.082-4.0166,45.8829,29.9307,83.084,75.8174,83.084l-2.7778,31.7246c54.6392,0,102.82-44.2978,107.602-98.9453C395.0742,233.8394,354.6465,189.5371,300.0029,189.5371Z" transform="translate(-209.3296 -189.5371)" style="fill:#ee2849"/><path d="M361.335,284.7275a18.976,18.976,0,0,1-.1758,7.3555,25.0865,25.0865,0,0,1-3.62,8.6445,22.0618,22.0618,0,0,1-6.9488,6.54,35.68,35.68,0,0,1-10.8037,4.1465,69.1828,69.1828,0,0,1-15.1792,1.4609,64.1045,64.1045,0,0,1-12.6157-1.1123,22.5577,22.5577,0,0,1-8.9321-3.6191,12.96,12.96,0,0,1-4.79-6.5987c-.896-2.7256-.8345-5.3447-.0556-9.24h25.3794c-.4664,3.1953-.3487,4.6474.4282,5.7383q1.1652,1.749,4.3213,1.75,3.3859,0,4.8457-1.459a7.1053,7.1053,0,0,0,1.9277-3.5625,4.2767,4.2767,0,0,0-.291-2.5108q-.5266-1.2231-3.0957-1.81c-.4663-.0772-.9751-.1748-1.5171-.293-.5474-.1152-1.2451-.2715-2.103-.4658-.8575-.1914-1.9639-.4268-3.3267-.7q-2.047-.4073-5.0811-.9927" transform="translate(-209.3296 -189.5371)" style="fill:url(#linear-gradient)"/><path d="M363.9619,270.5972a17.4883,17.4883,0,0,0-.4663-9.5762,12.5152,12.5152,0,0,0-5.1372-6.1314,24.762,24.762,0,0,0-9.0513-3.2114,72.6067,72.6067,0,0,0-12.2031-.9345,53.32,53.32,0,0,0-13.7222,1.5766,36.0569,36.0569,0,0,0-10.0444,4.2041,22.1362,22.1362,0,0,0-6.6,6.2471,20.9841,20.9841,0,0,0-3.269,7.5923,19.78,19.78,0,0,0-.3511,6.9487A8.64,8.64,0,0,0,305.57,282.16a16.25,16.25,0,0,0,5.4893,3.3867,51.4965,51.4965,0,0,0,8.643,2.4516q3.0389.5838,5.0811.9927c1.3628.2734,2.4692.5088,3.3267.7.8579.1943,1.5556.3506,2.103.4658.542.1182,1.0508.2158,1.5171.293,1.833.501,3.1264,1.1064,4.0439,1.3975.7808.2509,30.7823,9.3564,4.0132,19.5664a35.68,35.68,0,0,0,10.8037-4.1465,22.0618,22.0618,0,0,0,6.9488-6.54,25.0865,25.0865,0,0,0,3.62-8.6445,18.976,18.976,0,0,0,.1758-7.3555,9.0245,9.0245,0,0,0-3.4429-5.2544,23.6253,23.6253,0,0,0-8.0591-3.7373,101.2029,101.2029,0,0,0-13.5483-2.685,30.1248,30.1248,0,0,1-4.3179-.8194,7.2568,7.2568,0,0,1-2.3975-1.05,2.38,2.38,0,0,1-.9331-1.3458,3.5774,3.5774,0,0,1,.0581-1.69,5.3861,5.3861,0,0,1,1.9854-3.1533q1.5175-1.1682,5.021-1.168,2.8044,0,3.9726,1.2837,1.0467,1.4048.233,5.49Z" transform="translate(-209.3296 -189.5371)" style="fill:#fff"/><path d="M298.2412,258.9761q-6.3061-8.2347-23.0088-8.2324a52.0714,52.0714,0,0,0-14.7129,1.9853,39.9612,39.9612,0,0,0-12.1469,5.8384,34.8354,34.8354,0,0,0-9.05,9.5776,39.935,39.935,0,0,0-5.316,13.3154,51.6037,51.6037,0,0,0-.8213,5.1773h-.0366a30.5653,30.5653,0,0,0,.3911,9.7109,19.3619,19.3619,0,0,0,5.1407,9.6914,21.226,21.226,0,0,0,9.2812,5.2588,43.68,43.68,0,0,0,11.9736,1.5762q16.4664,0,25.6343-5.2559A28.5894,28.5894,0,0,0,298.4746,292.32H273.7153a9.4177,9.4177,0,0,1-3.6215,4.6143,8.7831,8.7831,0,0,1-4.67,1.457q-4.2069,0-5.6054-2.2783-1.4019-2.2779-.2349-7.4131l.2969-1.7578h40.4643l.8155-3.9668Q304.5449,267.2124,298.2412,258.9761ZM277.686,273.7524l-.1157.815H262.6187l.12-.815a11.1513,11.1513,0,0,1,3.5044-6.3667,8.9639,8.9639,0,0,1,5.9555-2.1606,5.5749,5.5749,0,0,1,4.9039,2.1606Q278.6174,269.5486,277.686,273.7524Z" transform="translate(-209.3296 -189.5371)" style="fill:#fff"/><path d="M410.2783,231.81h23.9053v3.834H414.6577V250.24h17.2744v3.7124H414.6577v16.606h19.5259V274.39H410.2783Z" transform="translate(-209.3296 -189.5371)" style="fill:#808184"/><path d="M465.876,274.39l-10.5225-17.7-10.16,17.7h-4.8057L453.04,252.6748,440.752,231.81h4.9267l10.16,17.2148,9.7324-17.2148h4.6836l-12.2266,20.9887L470.8027,274.39Z" transform="translate(-209.3296 -189.5371)" style="fill:#808184"/><path d="M492.8838,231.81c9.0039,0,11.8027,3.834,11.8027,10.22v5.6572c0,6.4473-2.7988,10.2793-11.8027,10.2793H482.1787V274.39h-4.38V231.81Zm-10.7051,3.834v18.49h10.5225c5.1709,0,7.4209-2.3706,7.4209-6.4473v-6.5688c0-4.1367-2.25-5.4741-7.4209-5.4741Z" transform="translate(-209.3296 -189.5371)" style="fill:#808184"/><path d="M534.8555,274.45l-6.5069-16.7271a8.0859,8.0859,0,0,1-1.2187.0616H516.4863V274.45H512.167V231.81H527.13c8.8828,0,11.7412,3.834,11.7412,10.1582v5.5376c0,4.9267-1.7041,8.3325-6.45,9.67l6.7549,17.2744Zm-.5469-26.9448v-6.45c0-4.0747-2.252-5.4742-7.3594-5.4742H516.4863v18.3711h10.4629C532.0566,253.9526,534.3086,251.58,534.3086,247.5054Z" transform="translate(-209.3296 -189.5371)" style="fill:#808184"/><path d="M546.3555,231.81h23.9033v3.834H550.7324V250.24h17.2764v3.7124H550.7324v16.606h19.5264V274.39H546.3555Z" transform="translate(-209.3296 -189.5371)" style="fill:#808184"/><path d="M577.7432,273.9028V269.89a75.6932,75.6932,0,0,0,12.7119,1.3975c3.1035,0,9.8535-.7905,9.8535-7.1782,0-9.4273-22.627-9.061-22.627-22.3823,0-7.7276,6.8731-10.5245,13.3213-10.5245a64.3419,64.3419,0,0,1,11.8614,1.0953v4.0766a61.3033,61.3033,0,0,0-11.8614-1.4614c-7.7236,0-8.9424,4.0747-8.9424,6.2051,0,9.9746,22.627,10.1577,22.627,22.6289,0,3.1611-.666,11.2529-14.4141,11.2529A92.4232,92.4232,0,0,1,577.7432,273.9028Z" transform="translate(-209.3296 -189.5371)" style="fill:#808184"/><path d="M614.1172,274.39V231.81h4.38V274.39Z" transform="translate(-209.3296 -189.5371)" style="fill:#808184"/><path d="M625.0674,231.8711h4.6221l9.246,30.293,1.2784,6.5688h.3027l1.3379-6.4473,9.3076-30.4145h4.5029l-13.14,42.519H638.084Z" transform="translate(-209.3296 -189.5371)" style="fill:#808184"/><path d="M408.8193,328.0254v-4.0147a75.6855,75.6855,0,0,0,12.712,1.3995c3.101,0,9.8535-.7911,9.8535-7.1788,0-9.4287-22.6275-9.0625-22.6275-22.3837,0-7.7256,6.8736-10.5245,13.3213-10.5245A64.3706,64.3706,0,0,1,433.94,286.418v4.0771a61.3567,61.3567,0,0,0-11.8618-1.46c-7.7256,0-8.9419,4.0752-8.9419,6.2031,0,9.9765,22.627,10.1582,22.627,22.6289,0,3.1631-.669,11.2529-14.4136,11.2529A92.5893,92.5893,0,0,1,408.8193,328.0254Z" transform="translate(-209.3296 -189.5371)" style="fill:#808184"/><path d="M468.8555,289.7646H457.1172v38.7471h-4.5029V289.7646H440.9375v-3.8325h27.918Z" transform="translate(-209.3296 -189.5371)" style="fill:#808184"/><path d="M504.0156,285.9321v31.2046c0,7.6641-5.291,12.1055-14.5371,12.1055s-14.54-4.4414-14.54-12.1055V285.9321h4.26v31.0835c0,3.8916,1.7627,8.5772,10.28,8.5772,8.5137,0,10.3389-4.6856,10.3389-8.5772V285.9321Z" transform="translate(-209.3296 -189.5371)" style="fill:#808184"/><path d="M514.0518,285.9941h13.9921c8.5137,0,12.8331,3.77,12.8331,11.3721v19.7705c0,7.543-4.3194,11.375-12.8331,11.375H514.0518Zm13.8095,38.8067c6.1446,0,8.7578-2.3711,8.7578-8.09V297.7324c0-5.6572-2.6132-8.09-8.7578-8.09H518.25v35.1582Z" transform="translate(-209.3296 -189.5371)" style="fill:#808184"/><path d="M550.3066,328.5117v-42.58h4.38v42.58Z" transform="translate(-209.3296 -189.5371)" style="fill:#808184"/><path d="M564.42,317.0771V297.4277c0-7.7236,5.293-12.1045,14.4756-12.1045,9.2471,0,14.54,4.3809,14.54,12.1045v19.6494c0,7.6622-5.2929,12.043-14.54,12.043C569.7129,329.12,564.42,324.7393,564.42,317.0771Zm4.1963-19.5273v19.4043c0,3.8936,1.8252,8.5772,10.2793,8.5772,8.5176,0,10.2813-4.6836,10.2813-8.5772V297.55c0-3.9541-1.7637-8.5757-10.2813-8.5757C570.4414,288.9741,568.6162,293.5957,568.6162,297.55Z" transform="translate(-209.3296 -189.5371)" style="fill:#808184"/><path d="M601.4033,328.0254v-4.0147a75.6913,75.6913,0,0,0,12.7139,1.3995c3.1016,0,9.8535-.7911,9.8535-7.1788,0-9.4287-22.6269-9.0625-22.6269-22.3837,0-7.7256,6.871-10.5245,13.3212-10.5245a64.396,64.396,0,0,1,11.8614,1.0948v4.0771a61.35,61.35,0,0,0-11.8614-1.46c-7.7255,0-8.9443,4.0752-8.9443,6.2031,0,9.9765,22.6289,10.1582,22.6289,22.6289,0,3.1631-.668,11.2529-14.415,11.2529A92.6316,92.6316,0,0,1,601.4033,328.0254Z" transform="translate(-209.3296 -189.5371)" style="fill:#808184"/><path d="M419.4087,366.3193h-1.313l-1.894-5.3252-1.9126,5.3252h-1.3125l-3.2447-9.1142h1.4068l2.269,6.3955.2061,1.1435h.1128l.2436-1.125,1.5943-4.4257-.7129-1.9883h1.4067l2.269,6.3955.2061,1.1435h.1128l.2436-1.125,2.3067-6.414h1.3125Z" transform="translate(-209.3296 -189.5371)" style="fill:#808184"/><path d="M433.0586,366.3193h-1.3125l-1.8945-5.3252-1.9126,5.3252h-1.3125l-3.2447-9.1142h1.4068l2.269,6.3955.2061,1.1435h.1128l.2436-1.125,1.5943-4.4257-.7129-1.9883h1.4067l2.2686,6.3955.207,1.1435h.1123l.2441-1.125,2.3067-6.414h1.3125Z" transform="translate(-209.3296 -189.5371)" style="fill:#808184"/><path d="M446.708,366.3193h-1.3125l-1.8935-5.3252-1.9131,5.3252h-1.3125l-3.2442-9.1142h1.4063l2.2685,6.3955.2071,1.1435h.1123l.2441-1.125,1.5938-4.4257-.7129-1.9883h1.4062l2.2695,6.3955.2061,1.1435h.1123l.2441-1.125,2.3067-6.414h1.3125Z" transform="translate(-209.3296 -189.5371)" style="fill:#808184"/><path d="M451.375,366.2822v-1.7256h1.332v1.7256Z" transform="translate(-209.3296 -189.5371)" style="fill:#808184"/><path d="M462.665,360.4307v1.6132h-6.039v1.2754c0,1.5567.6006,2.1,2.3252,2.1a15.72,15.72,0,0,0,3.1133-.581v1.2187a15.19,15.19,0,0,1-3.15.45c-2.9815,0-3.5821-1.2373-3.5821-3.2441v-2.832c0-1.2559.4688-3.375,3.6573-3.375S462.665,359.1748,462.665,360.4307Zm-1.3134-.0557c0-1.4629-.8057-2.2314-2.3623-2.2314a2.0581,2.0581,0,0,0-2.3633,2.2314v.6563h4.7256Z" transform="translate(-209.3296 -189.5371)" style="fill:#808184"/><path d="M470.67,366.3008l-2.6816-3.6758-2.5889,3.6758h-1.3681l3.3-4.5947-3.1875-4.501h1.4443l2.5879,3.62,2.4941-3.62h1.35l-3.207,4.539,3.3193,4.5567Z" transform="translate(-209.3296 -189.5371)" style="fill:#808184"/><path d="M477.42,366.5068a10.66,10.66,0,0,1-2.1006-.2812v4.5762h-1.35v-13.09a13.6412,13.6412,0,0,1,3.4511-.6562c2.9815,0,3.5625,1.2373,3.5625,3.2441v2.9629C480.9824,365.2129,480.3828,366.5068,477.42,366.5068Zm2.2871-6.2636c0-1.5557-.6181-2.1-2.3252-2.1a19.7592,19.7592,0,0,0-2.0625.3183v6.6387a17.7433,17.7433,0,0,0,2.0625.3183c1.7071,0,2.3252-.5429,2.3252-2.1Z" transform="translate(-209.3296 -189.5371)" style="fill:#808184"/><path d="M484.9941,359.6055v6.6953h-1.35v-9.0576h1.2382l.1123,1.2373a5.9036,5.9036,0,0,1,3.45-1.3877v1.2187A6.9321,6.9321,0,0,0,484.9941,359.6055Z" transform="translate(-209.3296 -189.5371)" style="fill:#808184"/><path d="M496.9014,360.4307v1.6132h-6.0391v1.2754c0,1.5567.6006,2.1,2.3252,2.1a15.72,15.72,0,0,0,3.1133-.581v1.2187a15.19,15.19,0,0,1-3.15.45c-2.9815,0-3.582-1.2373-3.582-3.2441v-2.832c0-1.2559.4687-3.375,3.6572-3.375S496.9014,359.1748,496.9014,360.4307Zm-1.3135-.0557c0-1.4629-.8057-2.2314-2.3623-2.2314a2.0581,2.0581,0,0,0-2.3633,2.2314v.6563h4.7256Z" transform="translate(-209.3296 -189.5371)" style="fill:#808184"/><path d="M499.0176,366.2441v-1.2373a20.1478,20.1478,0,0,0,3.0195.3c.6563,0,1.9883-.0752,1.9883-1.0683,0-2.044-5.0264-2.044-5.0264-4.8574,0-1.6875,1.3125-2.3252,3.1319-2.3252a19.02,19.02,0,0,1,2.85.2441v1.1621a18.2732,18.2732,0,0,0-2.85-.3183c-1.4815,0-1.7813.6377-1.7813,1.2187,0,1.875,5.0254,1.9873,5.0254,4.876,0,.8252-.4307,2.25-3.375,2.25A26.2567,26.2567,0,0,1,499.0176,366.2441Z" transform="translate(-209.3296 -189.5371)" style="fill:#808184"/><path d="M507.9238,355.1426v-2.3438h1.3321v2.3438Zm0,11.1582v-9.0957h1.3321v9.0957Z" transform="translate(-209.3296 -189.5371)" style="fill:#808184"/><path d="M514.1494,366.3193l-3.2441-9.1142h1.4062l2.2686,6.3955.207,1.1435h.1123l.2442-1.125,2.3066-6.414h1.3125l-3.3008,9.1142h-1.3125Z" transform="translate(-209.3296 -189.5371)" style="fill:#808184"/><path d="M520.0547,366.2441v-1.2373a20.1476,20.1476,0,0,0,3.0195.3c.6563,0,1.9883-.0752,1.9883-1.0683,0-2.044-5.0264-2.044-5.0264-4.8574,0-1.6875,1.3125-2.3252,3.1319-2.3252a19.022,19.022,0,0,1,2.8506.2441v1.1621a18.2752,18.2752,0,0,0-2.8506-.3183c-1.4815,0-1.7813.6377-1.7813,1.2187,0,1.875,5.0254,1.9873,5.0254,4.876,0,.8252-.4307,2.25-3.375,2.25A26.2567,26.2567,0,0,1,520.0547,366.2441Z" transform="translate(-209.3296 -189.5371)" style="fill:#808184"/><path d="M532.8428,366.3574c-.169.0186-4.0694,1.2373-4.0694-2.626v-9.2822h1.3506v2.794h2.55v1.2939h-2.55v5.251c0,2.5127,2.55,1.5,2.7188,1.4629Z" transform="translate(-209.3296 -189.5371)" style="fill:#808184"/><path d="M534.9043,363.1123v-5.9072H536.18v5.9638c0,1.5567.6562,2.4375,2.3437,2.1006.45-.0937,2.1573-.7129,2.4942-.8437v-7.2207h1.3691v9.1142h-1.1621l-.207-.7871a18.4363,18.4363,0,0,1-2.5313.8252C535.56,366.9014,534.9043,365.0635,534.9043,363.1123Z" transform="translate(-209.3296 -189.5371)" style="fill:#808184"/><path d="M548.6289,357.0557a10.4794,10.4794,0,0,1,2.082.2812v-4.5381h1.3506v13.0518a14.5743,14.5743,0,0,1-3.4326.6562c-2.9814,0-3.581-1.2373-3.581-3.2441V360.3C545.0479,358.35,545.6475,357.0557,548.6289,357.0557Zm-2.3066,6.2636c0,1.5567.6191,2.1,2.3447,2.1a19.2328,19.2328,0,0,0,2.0439-.3183v-6.6387a16.9519,16.9519,0,0,0-2.0439-.3183c-1.7256,0-2.3447.5439-2.3447,2.1Z" transform="translate(-209.3296 -189.5371)" style="fill:#808184"/><path d="M555.06,355.1426v-2.3438h1.332v2.3438Zm0,11.1582v-9.0957h1.332v9.0957Z" transform="translate(-209.3296 -189.5371)" style="fill:#808184"/><path d="M558.9219,363.1318v-2.7011c0-1.2559.4687-3.375,3.6572-3.375s3.6758,2.1191,3.6758,3.375v2.7011c0,1.2559-.4883,3.375-3.6758,3.375S558.9219,364.3877,558.9219,363.1318Zm1.2939-2.7568v2.8125a2.0581,2.0581,0,0,0,2.3633,2.2314c1.5566,0,2.3623-.7685,2.3623-2.2314V360.375c0-1.4629-.8057-2.2314-2.3623-2.2314A2.0581,2.0581,0,0,0,560.2158,360.375Z" transform="translate(-209.3296 -189.5371)" style="fill:#808184"/><path d="M568.4277,366.2441v-1.2373a20.1479,20.1479,0,0,0,3.02.3c.6562,0,1.9882-.0752,1.9882-1.0683,0-2.044-5.0263-2.044-5.0263-4.8574,0-1.6875,1.3125-2.3252,3.1318-2.3252a19.02,19.02,0,0,1,2.8506.2441v1.1621a18.2734,18.2734,0,0,0-2.8506-.3183c-1.4814,0-1.7812.6377-1.7812,1.2187,0,1.875,5.0254,1.9873,5.0254,4.876,0,.8252-.4307,2.25-3.375,2.25A26.257,26.257,0,0,1,568.4277,366.2441Z" transform="translate(-209.3296 -189.5371)" style="fill:#808184"/><path d="M577.4277,366.2822v-1.7256H578.76v1.7256Z" transform="translate(-209.3296 -189.5371)" style="fill:#808184"/><path d="M581.291,363.2627V360.3c0-1.95.6192-3.2441,3.582-3.2441a12.4739,12.4739,0,0,1,2.419.3379v1.125a23.7467,23.7467,0,0,0-2.3818-.375c-1.7247,0-2.3252.5439-2.3252,2.1v3.0761c0,1.5567.6,2.1,2.3252,2.1a23.7467,23.7467,0,0,0,2.3818-.375V366.15a12.4008,12.4008,0,0,1-2.419.3564C581.8916,366.5068,581.291,365.27,581.291,363.2627Z" transform="translate(-209.3296 -189.5371)" style="fill:#808184"/><path d="M589.166,363.1318v-2.7011c0-1.2559.4688-3.375,3.6572-3.375s3.6758,2.1191,3.6758,3.375v2.7011c0,1.2559-.4883,3.375-3.6758,3.375S589.166,364.3877,589.166,363.1318Zm1.294-2.7568v2.8125a2.058,2.058,0,0,0,2.3632,2.2314c1.5567,0,2.3623-.7685,2.3623-2.2314V360.375c0-1.4629-.8056-2.2314-2.3623-2.2314A2.058,2.058,0,0,0,590.46,360.375Z" transform="translate(-209.3296 -189.5371)" style="fill:#808184"/><path d="M612.2871,360.4121v5.8887h-1.2754v-5.9444a1.91,1.91,0,0,0-2.5508-2.1005c-.3554.0752-1.331.4687-1.9687.7129v7.332h-1.2754v-5.9444c0-1.5566-.6377-2.4384-2.3438-2.1005-.45.0937-2.1562.7129-2.4941.8437v7.2012h-1.3506v-9.0957h1.1446l.206.7881a18.3,18.3,0,0,1,2.5313-.8252c1.5752-.3,2.4941.1123,3.0009.8437a22.21,22.21,0,0,1,2.5879-.8437C611.4248,356.624,612.2871,358.4619,612.2871,360.4121Z" transform="translate(-209.3296 -189.5371)" style="fill:#808184"/></svg>