<svg xmlns="http://www.w3.org/2000/svg" width="63" height="64" viewBox="0 0 63 64">
  <g fill="none">
    <path fill="#57C2F1" d="M44.2246094,60.1044923 L48.7807617,42.7504883 L24.5830077,42.7504883 L29.1391601,60.1044923 C29.5483399,61.663086 30.9570312,62.75 32.5688476,62.75 L40.7949219,62.75 C42.4067383,62.75 43.8154297,61.663086 44.2246094,60.1044923 L44.2246094,60.1044923 Z"/>
    <path fill="#EC7B53" d="M56,34.9643555 C56,30.6640625 52.5136719,27.1777344 48.2133789,27.1777344 L48.2104492,27.1777344 C48.109375,19.7382813 43.234375,13.453125 36.5102539,11.2446289 C29.7861327,13.453125 24.9111327,19.7387695 24.8100586,27.1777344 L24.8071289,27.1777344 C20.506836,27.1777344 17.0209961,30.6640625 17.0209961,34.9643555 C17.0209961,39.2646485 20.506836,42.7504883 24.8071289,42.7504883 L48.2133789,42.7504883 C52.5136719,42.7504883 56,39.2646485 56,34.9643555 Z" opacity=".5"/>
    <path fill="#EC7B53" d="M8.97460937 1.8237305C7.87988275 2.45556638 7.16943362 3.50537112 6.91552737 4.6762695 6.20117187 4.44726562 5.4384765 4.397461 4.699707 4.546875 4.46484375 5.63525387 4.62304687 6.82763675 5.2353515 7.88769525 6.78759762 10.5766601 11.7763672 11.2177735 14.4106445 11.3671875 15.4213867 8.9140625 16.3017578 5.67773437 15.1040039 3.60302737 13.8325195 1.40039063 11.0878906.603515625 8.97460937 1.8237305zM60.5043945 11.2314453C61.7758789 9.02832025 61.09375 6.253418 58.9804688 5.03320313 57.8857423 4.40136725 56.621582 4.31054688 55.4804688 4.6762695 55.3613281 4.12646487 55.1401368 3.60400388 54.8271485 3.13867188 53.7451172 3.47119138 52.7685547 4.211914 52.1459961 5.29052738 50.690918 7.81054688 52.3017577 12.043457 53.4882812 14.5053711 56.1079101 14.1499024 59.3144531 13.2919923 60.5043945 11.2314453L60.5043945 11.2314453z"/>
    <path fill="#000" d="M31.1977539 11.6479492L31.209961 11.6479492C31.8999024 11.6479492 32.4541015 11.0878906 32.4541015 10.3979492 32.4541015 9.7075195 31.8881836 9.14794925 31.1977539 9.14794925 30.5078125 9.14794925 29.9477539 9.7075195 29.9477539 10.3979492 29.9477539 11.0878906 30.5078125 11.6479492 31.1977539 11.6479492zM25.2695312 21.9140625C25.5136719 22.1582031 25.8334961 22.2802735 26.1533202 22.2802735 26.4731445 22.2802735 26.7929687 22.1582031 27.0371094 21.9140625 27.5253906 21.4257812 27.5253906 20.6347656 27.0371094 20.1464844L25.8574219 18.9667969C25.3691406 18.4790039 24.578125 18.4790039 24.0898437 18.9667969 23.6015625 19.4550781 23.6015625 20.246582 24.0898437 20.7348632L25.2695312 21.9140625zM41.4731445 30.7924805C41.793457 30.7924805 42.1132812 30.6704101 42.3574219 30.4262695 42.8452149 29.9384765 42.8452149 29.1469726 42.3574219 28.6586914L41.1777344 27.4794923C40.6894531 26.991211 39.8984375 26.991211 39.4101562 27.4794923 38.921875 27.9672851 38.921875 28.758789 39.4101562 29.2470703L40.5893555 30.4262695C40.8334961 30.6704101 41.1533202 30.7924805 41.4731445 30.7924805zM22.4077149 27.4794923C21.9194336 26.991211 21.1279297 26.991211 20.6396485 27.4794923 20.1518555 27.9677735 20.1518555 28.7592774 20.6401367 29.2470703L21.819336 30.4267578C22.0634765 30.6708985 22.3833007 30.7929688 22.703125 30.7929688 23.0229492 30.7929688 23.3432617 30.6704101 23.586914 30.4262695 24.0751952 29.9384765 24.0751952 29.1469726 23.586914 28.6586914L22.4077149 27.4794923zM37.1264649 21.9140625L38.3061524 20.7348632C38.7939453 20.246582 38.7939453 19.4550781 38.3061524 18.9667969 37.8178711 18.4790039 37.0263673 18.4790039 36.538086 18.9667969L35.3588867 20.1464844C34.8706055 20.6342774 34.8706055 21.4257812 35.3588867 21.9140625 35.602539 22.1582031 35.9228515 22.2802735 36.2426758 22.2802735 36.5625 22.2802735 36.8823243 22.1582031 37.1264649 21.9140625L37.1264649 21.9140625zM30.6083985 30.7924805C30.9282226 30.7924805 31.2480469 30.6704101 31.4916992 30.4262695L32.6713867 29.2470703C33.159668 28.7592774 33.159668 27.9677735 32.6713867 27.4794923 32.1835937 26.991211 31.3920899 26.991211 30.9038086 27.4794923L29.7241211 28.6586914C29.2363281 29.1469726 29.2363281 29.9379883 29.7241211 30.4262695 29.9682617 30.6704101 30.288086 30.7924805 30.6083985 30.7924805L30.6083985 30.7924805z"/>
    <path fill="#221E1F" d="M62.225586,7.46582025 C61.855957,5.9609375 60.925293,4.71289063 59.6054687,3.95117188 C58.609375,3.37548825 57.4550781,3.1328125 56.3105469,3.2387695 C55.8305664,2.19482425 55.0424805,1.31640625 54.0463867,0.741211 C52.7265625,-0.02050775 51.1801757,-0.20263675 49.6923827,0.22949225 C48.2231445,0.65576175 46.9863281,1.63232425 46.2094726,2.97851563 C45.1254882,4.855957 45.2236327,7.55615238 46.5009765,11.0048828 C47.0932617,12.6030274 47.7993164,13.9804688 48.222168,14.75 L46.5913086,17.5820313 C46.2875976,17.1083985 45.9633789,16.6455078 45.6132812,16.196289 C43.227539,13.1333008 39.8657226,10.871582 36.147461,9.8271485 C35.4824219,9.6396485 34.7929687,10.027832 34.605957,10.6923828 C34.4194336,11.3569336 34.8066406,12.046875 35.4711914,12.2338868 C42.1420899,14.1074219 46.8666992,20.2597656 46.9604492,27.1948243 C46.9697265,27.878418 47.5297851,28.4277344 48.2133789,28.4277344 C51.8178711,28.4277344 54.75,31.3598633 54.75,34.9643555 C54.75,38.5683594 51.8178711,41.5009765 48.2133789,41.5009765 L14.1826172,41.5009765 C10.5786132,41.5009765 7.64599612,38.5683594 7.64599612,34.9643555 C7.64599612,31.3598633 10.5786132,28.4277344 14.1855469,28.4277344 C14.8691406,28.4277344 15.4257812,27.878418 15.4350586,27.1948243 C15.4550781,25.7553711 15.6694336,24.3554688 16.0532226,23.022461 L17.2836914,25.1591797 C17.5151367,25.5610351 17.9355469,25.7856445 18.368164,25.7856445 C18.5795899,25.7856445 18.7939452,25.7319336 18.9907226,25.6186524 C19.5888672,25.2739258 19.7944336,24.5097656 19.4501952,23.9116211 L17.2368164,20.0688476 C19.1362305,16.4487305 22.4189452,13.625 26.5229492,12.352539 C27.1826172,12.1479492 27.5512695,11.4477539 27.3466797,10.7885742 C27.1425781,10.1289062 26.4423827,9.76025387 25.7827149,9.9643555 C22.1259765,11.0981445 18.9638672,13.3183594 16.6381836,16.383789 C16.3427735,16.7734375 16.065918,17.1738281 15.8041992,17.581543 L14.1738281,14.75 C14.5961914,13.9804688 15.3027344,12.6030274 15.8945312,11.0053711 C17.1723632,7.55664062 17.2705077,4.855957 16.1865235,2.97851562 C15.409668,1.63232425 14.1723632,0.65625 12.7036132,0.22949225 C11.2158202,-0.2021485 9.66992187,-0.020996125 8.34960937,0.741211 C7.35351562,1.31640625 6.56542975,2.19482425 6.08544925,3.2387695 C4.94140625,3.13330075 3.78662112,3.3759765 2.79052737,3.95117187 C1.47070312,4.71289062 0.540039,5.9609375 0.170410125,7.46582025 C-0.19482425,8.95068362 0.03173825,10.5102539 0.809082,11.8564453 C1.89306637,13.7338867 4.28076175,14.9990235 7.90625,15.6171875 C9.58447262,15.902832 11.1298827,15.9804688 12.0083007,15.9995117 L14.4189452,20.1845703 C13.6254882,22.022461 13.1401367,23.9814453 12.9868164,26.006836 C8.5668945,26.5932617 5.14599612,30.3867188 5.14599612,34.9643555 C5.14599612,39.4003906 8.35986325,43.097168 12.5810547,43.8554688 L16.9301757,60.421875 C17.4833985,62.5288086 19.3911132,64 21.5688476,64 L40.7949219,64 C42.9731445,64 44.8803711,62.5288086 45.4335937,60.421875 L49.78125,43.8618164 C54.0185547,43.1166993 57.2495117,39.4121094 57.2495117,34.9643555 C57.2495117,30.3876953 53.8295899,26.5947265 49.4086914,26.006836 C49.2558594,23.9785156 48.772461,22.019043 47.9785156,20.1816406 L50.387207,15.9995118 C51.265625,15.9804688 52.8110351,15.9033203 54.4892577,15.6171875 C58.1147461,14.9995118 60.5024414,13.734375 61.5864257,11.8564453 C62.3637695,10.5102539 62.5908202,8.95068363 62.225586,7.46582025 Z M2.97412112,10.6064453 C2.52099612,9.82177738 2.387207,8.91796875 2.59765625,8.0625 C2.80322262,7.225586 3.31542975,6.53417975 4.040039,6.116211 C4.50634762,5.847168 5.02294925,5.71044925 5.55175775,5.71044925 C5.87744137,5.71044925 6.20800775,5.762207 6.53369137,5.86669925 C6.86914062,5.97412113 7.23486325,5.93505863 7.540039,5.758789 C7.84570312,5.58300775 8.06201175,5.28613275 8.13671875,4.94140625 C8.3271485,4.06396488 8.84667975,3.34130863 9.59960937,2.90625 C10.3242187,2.48828125 11.178711,2.39013675 12.0063476,2.63037113 C12.8530274,2.8759765 13.5683594,3.44384763 14.0214844,4.22851563 C15.328125,6.491211 13.2163086,11.2988281 12.0097656,13.5024414 C9.49951175,13.4477539 4.28417975,12.8754883 2.97412112,10.6064453 Z M32.4321289,61.5 L32.4321289,44.0004883 L39.430664,44.0004883 L35.8647461,61.5 L32.4321289,61.5 Z M26.4995117,61.5 L22.9335937,44.0004883 L29.9321289,44.0004883 L29.9321289,61.5 L26.4995117,61.5 Z M19.3481445,59.7871094 L15.2036132,44.0004883 L20.3823242,44.0004883 L23.9482422,61.5 L21.569336,61.5 C20.5263672,61.5 19.612793,60.7958985 19.3481445,59.7871094 Z M43.0161132,59.7871094 C42.7509765,60.7954101 41.8378906,61.5 40.7949219,61.5 L38.4160156,61.5 L41.9819336,44.0004883 L47.1606445,44.0004883 L43.0161132,59.7871094 Z M59.421875,10.6064453 C58.1152344,12.8691406 52.8969726,13.444336 50.3852539,13.5014649 C49.178711,11.296875 47.0678711,6.49072263 48.3740235,4.22802738 C48.8271485,3.44335938 49.5429687,2.8759765 50.3891601,2.62988275 C50.6860351,2.54394525 50.9863281,2.50146488 51.2827149,2.50146488 C51.8129882,2.50146488 52.331543,2.63818363 52.7958985,2.90625 C53.5488281,3.34082025 54.0683594,4.06396488 54.258789,4.94140625 C54.3334961,5.2856445 54.550293,5.5825195 54.8554687,5.758789 C55.1606445,5.93505863 55.5258789,5.97412113 55.8618164,5.86669925 C56.7167969,5.59228513 57.602539,5.68115238 58.3554687,6.11572263 C59.0800781,6.53417975 59.5922851,7.225586 59.7978515,8.06201175 C60.0083007,8.91796875 59.875,9.82177738 59.421875,10.6064453 Z"/>
  </g>
</svg>
