<?xml version="1.0" encoding="UTF-8"?>
<svg width="301px" height="110px" viewBox="0 0 301 110" version="1.1" xmlns="http://www.w3.org/2000/svg" xmlns:xlink="http://www.w3.org/1999/xlink">
    <!-- Generator: Sketch 48.2 (47327) - http://www.bohemiancoding.com/sketch -->
    <title>Group 5</title>
    <desc>Created with Sketch.</desc>
    <defs></defs>
    <g id="Page-1" stroke="none" stroke-width="1" fill="none" fill-rule="evenodd">
        <g id="Group-5">
            <polygon id="Fill-1" fill="#23528E" points="31.0869 35.1409 31.0869 32.8439 29.0979 31.6959 27.1089 32.8439 27.1089 35.1409 29.0979 36.2889"></polygon>
            <polygon id="Fill-2" fill="#23528E" points="31.0869 45.552 31.0869 43.256 29.0979 42.107 27.1089 43.256 27.1089 45.552 29.0979 46.7"></polygon>
            <polygon id="Fill-3" fill="#23528E" points="31.0869 55.9636 31.0869 53.6676 29.0979 52.5186 27.1089 53.6676 27.1089 55.9636 29.0979 57.1116"></polygon>
            <polygon id="Fill-4" fill="#23528E" points="31.0869 66.3752 31.0869 64.0782 29.0979 62.9302 27.1089 64.0782 27.1089 66.3752 29.0979 67.5232"></polygon>
            <polygon id="Fill-5" fill="#23528E" points="31.0869 76.7869 31.0869 74.4899 29.0979 73.3419 27.1089 74.4899 27.1089 76.7869 29.0979 77.9349"></polygon>
            <polygon id="Fill-6" fill="#23528E" points="33.4937 88.5876 33.4937 83.5116 29.0977 80.9746 24.7017 83.5116 24.7017 88.5876 29.0977 91.1256"></polygon>
            <polygon id="Fill-7" fill="#23528E" points="33.4937 98.9993 33.4937 93.9233 29.0977 91.3853 24.7017 93.9233 24.7017 98.9993 29.0977 101.5373"></polygon>
            <polygon id="Fill-8" fill="#23528E" points="22.1289 19.5246 22.1289 17.2286 20.1399 16.0796 18.1509 17.2286 18.1509 19.5246 20.1399 20.6726"></polygon>
            <polygon id="Fill-9" fill="#23528E" points="22.1289 29.9363 22.1289 27.6393 20.1399 26.4913 18.1509 27.6393 18.1509 29.9363 20.1399 31.0843"></polygon>
            <polygon id="Fill-10" fill="#23528E" points="22.1289 40.3479 22.1289 38.0509 20.1399 36.9029 18.1509 38.0509 18.1509 40.3479 20.1399 41.4959"></polygon>
            <polygon id="Fill-11" fill="#23528E" points="22.1289 50.7595 22.1289 48.4625 20.1399 47.3145 18.1509 48.4625 18.1509 50.7595 20.1399 51.9075"></polygon>
            <polygon id="Fill-12" fill="#23528E" points="22.1289 61.1706 22.1289 58.8746 20.1399 57.7256 18.1509 58.8746 18.1509 61.1706 20.1399 62.3186"></polygon>
            <polygon id="Fill-13" fill="#23528E" points="22.1289 71.5823 22.1289 69.2853 20.1399 68.1373 18.1509 69.2853 18.1509 71.5823 20.1399 72.7303"></polygon>
            <polygon id="Fill-14" fill="#23528E" points="22.1289 81.9939 22.1289 79.6969 20.1399 78.5489 18.1509 79.6969 18.1509 81.9939 20.1399 83.1419"></polygon>
            <polygon id="Fill-15" fill="#23528E" points="22.1289 92.4055 22.1289 90.1085 20.1399 88.9605 18.1509 90.1085 18.1509 92.4055 20.1399 93.5535"></polygon>
            <polygon id="Fill-16" fill="#23528E" points="13.1108 24.7292 13.1108 22.4322 11.1218 21.2842 9.1328 22.4322 9.1328 24.7292 11.1218 25.8772"></polygon>
            <polygon id="Fill-17" fill="#23528E" points="13.1108 35.1409 13.1108 32.8439 11.1218 31.6959 9.1328 32.8439 9.1328 35.1409 11.1218 36.2889"></polygon>
            <polygon id="Fill-18" fill="#23528E" points="13.1108 45.552 13.1108 43.256 11.1218 42.107 9.1328 43.256 9.1328 45.552 11.1218 46.7"></polygon>
            <polygon id="Fill-19" fill="#23528E" points="13.1108 55.9636 13.1108 53.6676 11.1218 52.5186 9.1328 53.6676 9.1328 55.9636 11.1218 57.1116"></polygon>
            <polygon id="Fill-20" fill="#23528E" points="13.1108 66.3752 13.1108 64.0782 11.1218 62.9302 9.1328 64.0782 9.1328 66.3752 11.1218 67.5232"></polygon>
            <polygon id="Fill-21" fill="#23528E" points="13.1108 76.7869 13.1108 74.4899 11.1218 73.3419 9.1328 74.4899 9.1328 76.7869 11.1218 77.9349"></polygon>
            <polygon id="Fill-22" fill="#23528E" points="13.1108 87.198 13.1108 84.902 11.1218 83.753 9.1328 84.902 9.1328 87.198 11.1218 88.346"></polygon>
            <polygon id="Fill-23" fill="#23528E" points="4.0923 29.9363 4.0923 27.6393 2.1033 26.4913 0.1143 27.6393 0.1143 29.9363 2.1033 31.0843"></polygon>
            <polygon id="Fill-24" fill="#23528E" points="4.0923 40.3479 4.0923 38.0509 2.1033 36.9029 0.1143 38.0509 0.1143 40.3479 2.1033 41.4959"></polygon>
            <polygon id="Fill-25" fill="#23528E" points="4.0923 50.7595 4.0923 48.4625 2.1033 47.3145 0.1143 48.4625 0.1143 50.7595 2.1033 51.9075"></polygon>
            <polygon id="Fill-26" fill="#23528E" points="4.0923 61.1706 4.0923 58.8746 2.1033 57.7256 0.1143 58.8746 0.1143 61.1706 2.1033 62.3186"></polygon>
            <polygon id="Fill-27" fill="#23528E" points="4.0923 71.5823 4.0923 69.2853 2.1033 68.1373 0.1143 69.2853 0.1143 71.5823 2.1033 72.7303"></polygon>
            <polygon id="Fill-28" fill="#23528E" points="4.0923 81.9939 4.0923 79.6969 2.1033 78.5489 0.1143 79.6969 0.1143 81.9939 2.1033 83.1419"></polygon>
            <polygon id="Fill-29" fill="#23528E" points="40.1709 40.3479 40.1709 38.0509 38.1819 36.9029 36.1929 38.0509 36.1929 40.3479 38.1819 41.4959"></polygon>
            <polygon id="Fill-30" fill="#23528E" points="40.1709 50.7595 40.1709 48.4625 38.1819 47.3145 36.1929 48.4625 36.1929 50.7595 38.1819 51.9075"></polygon>
            <polygon id="Fill-31" fill="#23528E" points="40.1709 61.1706 40.1709 58.8746 38.1819 57.7256 36.1929 58.8746 36.1929 61.1706 38.1819 62.3186"></polygon>
            <polygon id="Fill-32" fill="#23528E" points="40.1709 71.5823 40.1709 69.2853 38.1819 68.1373 36.1929 69.2853 36.1929 71.5823 38.1819 72.7303"></polygon>
            <polygon id="Fill-33" fill="#23528E" points="42.5776 83.3835 42.5776 78.3075 38.1816 75.7695 33.7856 78.3075 33.7856 83.3835 38.1816 85.9215"></polygon>
            <polygon id="Fill-34" fill="#23528E" points="42.5776 93.7947 42.5776 88.7187 38.1816 86.1817 33.7856 88.7187 33.7856 93.7947 38.1816 96.3327"></polygon>
            <polygon id="Fill-35" fill="#23528E" points="42.5776 104.2063 42.5776 99.1303 38.1816 96.5933 33.7856 99.1303 33.7856 104.2063 38.1816 106.7443"></polygon>
            <polygon id="Fill-36" fill="#23528E" points="49.1841 3.906 49.1841 1.61 47.1951 0.461 45.2061 1.61 45.2061 3.906 47.1951 5.054"></polygon>
            <polygon id="Fill-37" fill="#23528E" points="49.2241 45.5749 49.2241 43.2329 47.1951 42.0609 45.1661 43.2329 45.1661 45.5749 47.1951 46.7459"></polygon>
            <polygon id="Fill-38" fill="#23528E" points="49.1841 55.9636 49.1841 53.6676 47.1951 52.5186 45.2061 53.6676 45.2061 55.9636 47.1951 57.1116"></polygon>
            <polygon id="Fill-39" fill="#23528E" points="49.2241 66.3982 49.2241 64.0552 47.1951 62.8842 45.1661 64.0552 45.1661 66.3982 47.1951 67.5692"></polygon>
            <polygon id="Fill-40" fill="#23528E" points="51.5908 78.176 51.5908 73.1 47.1948 70.563 42.7998 73.1 42.7998 78.176 47.1948 80.714"></polygon>
            <polygon id="Fill-41" fill="#23528E" points="51.5908 88.5876 51.5908 83.5116 47.1948 80.9746 42.7998 83.5116 42.7998 88.5876 47.1948 91.1256"></polygon>
            <polygon id="Fill-42" fill="#23528E" points="51.5908 98.9993 51.5908 93.9233 47.1948 91.3853 42.7998 93.9233 42.7998 98.9993 47.1948 101.5373"></polygon>
            <polygon id="Fill-43" fill="#23528E" points="49.1841 108.0212 49.1841 105.7242 47.1951 104.5762 45.2061 105.7242 45.2061 108.0212 47.1951 109.1692"></polygon>
            <polygon id="Fill-44" fill="#23528E" points="63.3037 55.9636 63.3037 53.6676 65.2927 52.5186 67.2817 53.6676 67.2817 55.9636 65.2927 57.1116"></polygon>
            <polygon id="Fill-45" fill="#23528E" points="60.897 67.7649 60.897 62.6889 65.293 60.1509 69.689 62.6889 69.689 67.7649 65.293 70.3029"></polygon>
            <polygon id="Fill-46" fill="#23528E" points="60.897 78.176 60.897 73.1 65.293 70.563 69.689 73.1 69.689 78.176 65.293 80.714"></polygon>
            <polygon id="Fill-47" fill="#23528E" points="60.897 88.5876 60.897 83.5116 65.293 80.9746 69.689 83.5116 69.689 88.5876 65.293 91.1256"></polygon>
            <polygon id="Fill-48" fill="#23528E" points="60.897 98.9993 60.897 93.9233 65.293 91.3853 69.689 93.9233 69.689 98.9993 65.293 101.5373"></polygon>
            <polygon id="Fill-49" fill="#23528E" points="72.2217 50.7825 72.2217 48.4395 74.2507 47.2685 76.2797 48.4395 76.2797 50.7825 74.2507 51.9535"></polygon>
            <polygon id="Fill-50" fill="#23528E" points="72.2217 61.1936 72.2217 58.8516 74.2507 57.6796 76.2797 58.8516 76.2797 61.1936 74.2507 62.3646"></polygon>
            <polygon id="Fill-51" fill="#23528E" points="69.855 72.9719 69.855 67.8959 74.251 65.3579 78.646 67.8959 78.646 72.9719 74.251 75.5099"></polygon>
            <polygon id="Fill-52" fill="#23528E" points="69.855 83.3835 69.855 78.3075 74.251 75.7695 78.646 78.3075 78.646 83.3835 74.251 85.9215"></polygon>
            <polygon id="Fill-53" fill="#23528E" points="69.855 93.7947 69.855 88.7187 74.251 86.1817 78.646 88.7187 78.646 93.7947 74.251 96.3327"></polygon>
            <polygon id="Fill-54" fill="#23528E" points="81.2798 55.9636 81.2798 53.6676 83.2688 52.5186 85.2578 53.6676 85.2578 55.9636 83.2688 57.1116"></polygon>
            <polygon id="Fill-55" fill="#23528E" points="78.873 67.7649 78.873 62.6889 83.269 60.1509 87.665 62.6889 87.665 67.7649 83.269 70.3029"></polygon>
            <polygon id="Fill-56" fill="#23528E" points="78.873 78.176 78.873 73.1 83.269 70.563 87.665 73.1 87.665 78.176 83.269 80.714"></polygon>
            <polygon id="Fill-57" fill="#23528E" points="78.873 88.5876 78.873 83.5116 83.269 80.9746 87.665 83.5116 87.665 88.5876 83.269 91.1256"></polygon>
            <polygon id="Fill-58" fill="#23528E" points="90.2583 50.7825 90.2583 48.4395 92.2873 47.2685 94.3163 48.4395 94.3163 50.7825 92.2873 51.9535"></polygon>
            <polygon id="Fill-59" fill="#23528E" points="90.2583 61.1936 90.2583 58.8516 92.2873 57.6796 94.3163 58.8516 94.3163 61.1936 92.2873 62.3646"></polygon>
            <polygon id="Fill-60" fill="#23528E" points="87.8916 72.9719 87.8916 67.8959 92.2876 65.3579 96.6836 67.8959 96.6836 72.9719 92.2876 75.5099"></polygon>
            <polygon id="Fill-61" fill="#23528E" points="90.2983 81.9939 90.2983 79.6969 92.2873 78.5489 94.2763 79.6969 94.2763 81.9939 92.2873 83.1419"></polygon>
            <polygon id="Fill-62" fill="#23528E" points="90.2983 29.8049 90.2983 27.5079 92.2873 26.3599 94.2763 27.5079 94.2763 29.8049 92.2873 30.9529"></polygon>
            <polygon id="Fill-63" fill="#23528E" points="33.4937 15.7073 33.4937 10.6313 29.0977 8.0933 24.7017 10.6313 24.7017 15.7073 29.0977 18.2453"></polygon>
            <polygon id="Fill-64" fill="#23528E" points="33.4937 26.1189 33.4937 21.0429 29.0977 18.5049 24.7017 21.0429 24.7017 26.1189 29.0977 28.6569"></polygon>
            <polygon id="Fill-65" fill="#23528E" points="42.5776 10.5027 42.5776 5.4267 38.1816 2.8897 33.7856 5.4267 33.7856 10.5027 38.1816 13.0407"></polygon>
            <polygon id="Fill-66" fill="#23528E" points="42.5776 20.9143 42.5776 15.8383 38.1816 13.3003 33.7856 15.8383 33.7856 20.9143 38.1816 23.4523"></polygon>
            <polygon id="Fill-67" fill="#23528E" points="42.5776 31.3259 42.5776 26.2499 38.1816 23.7119 33.7856 26.2499 33.7856 31.3259 38.1816 33.8639"></polygon>
            <polygon id="Fill-68" fill="#23528E" points="51.5908 15.7073 51.5908 10.6313 47.1948 8.0933 42.7998 10.6313 42.7998 15.7073 47.1948 18.2453"></polygon>
            <polygon id="Fill-69" fill="#23528E" points="51.5908 26.1189 51.5908 21.0429 47.1948 18.5049 42.7998 21.0429 42.7998 26.1189 47.1948 28.6569"></polygon>
            <polygon id="Fill-70" fill="#23528E" points="51.5908 36.53 51.5908 31.454 47.1948 28.917 42.7998 31.454 42.7998 36.53 47.1948 39.068"></polygon>
            <polygon id="Fill-71" fill="#23528E" points="60.897 15.7073 60.897 10.6313 65.293 8.0933 69.689 10.6313 69.689 15.7073 65.293 18.2453"></polygon>
            <polygon id="Fill-72" fill="#23528E" points="60.897 26.1189 60.897 21.0429 65.293 18.5049 69.689 21.0429 69.689 26.1189 65.293 28.6569"></polygon>
            <polygon id="Fill-73" fill="#23528E" points="60.897 36.53 60.897 31.454 65.293 28.917 69.689 31.454 69.689 36.53 65.293 39.068"></polygon>
            <polygon id="Fill-74" fill="#23528E" points="60.897 46.9416 60.897 41.8656 65.293 39.3276 69.689 41.8656 69.689 46.9416 65.293 49.4796"></polygon>
            <polygon id="Fill-75" fill="#23528E" points="69.855 20.9143 69.855 15.8383 74.251 13.3003 78.646 15.8383 78.646 20.9143 74.251 23.4523"></polygon>
            <polygon id="Fill-76" fill="#23528E" points="69.855 31.3259 69.855 26.2499 74.251 23.7119 78.646 26.2499 78.646 31.3259 74.251 33.8639"></polygon>
            <polygon id="Fill-77" fill="#23528E" points="69.855 41.7375 69.855 36.6615 74.251 34.1235 78.646 36.6615 78.646 41.7375 74.251 44.2755"></polygon>
            <polygon id="Fill-78" fill="#23528E" points="78.873 26.1189 78.873 21.0429 83.269 18.5049 87.665 21.0429 87.665 26.1189 83.269 28.6569"></polygon>
            <polygon id="Fill-79" fill="#23528E" points="78.873 36.53 78.873 31.454 83.269 28.917 87.665 31.454 87.665 36.53 83.269 39.068"></polygon>
            <polygon id="Fill-80" fill="#23528E" points="78.873 46.9416 78.873 41.8656 83.269 39.3276 87.665 41.8656 87.665 46.9416 83.269 49.4796"></polygon>
            <polygon id="Fill-81" fill="#23528E" points="87.8916 41.7375 87.8916 36.6615 92.2876 34.1235 96.6836 36.6615 96.6836 41.7375 92.2876 44.2755"></polygon>
            <polygon id="Fill-82" fill="#23528E" points="51.813 10.5027 51.813 5.4267 56.209 2.8897 60.605 5.4267 60.605 10.5027 56.209 13.0407"></polygon>
            <polygon id="Fill-83" fill="#23528E" points="51.813 20.9143 51.813 15.8383 56.209 13.3003 60.605 15.8383 60.605 20.9143 56.209 23.4523"></polygon>
            <polygon id="Fill-84" fill="#23528E" points="51.813 31.3259 51.813 26.2499 56.209 23.7119 60.605 26.2499 60.605 31.3259 56.209 33.8639"></polygon>
            <polygon id="Fill-85" fill="#23528E" points="51.813 41.7375 51.813 36.6615 56.209 34.1235 60.605 36.6615 60.605 41.7375 56.209 44.2755"></polygon>
            <polygon id="Fill-86" fill="#23528E" points="54.1797 50.7825 54.1797 48.4395 56.2087 47.2685 58.2377 48.4395 58.2377 50.7825 56.2087 51.9535"></polygon>
            <polygon id="Fill-87" fill="#23528E" points="54.1797 61.1936 54.1797 58.8516 56.2087 57.6796 58.2377 58.8516 58.2377 61.1936 56.2087 62.3646"></polygon>
            <polygon id="Fill-88" fill="#23528E" points="51.813 72.9719 51.813 67.8959 56.209 65.3579 60.605 67.8959 60.605 72.9719 56.209 75.5099"></polygon>
            <polygon id="Fill-89" fill="#23528E" points="51.813 83.3835 51.813 78.3075 56.209 75.7695 60.605 78.3075 60.605 83.3835 56.209 85.9215"></polygon>
            <polygon id="Fill-90" fill="#23528E" points="51.813 93.7947 51.813 88.7187 56.209 86.1817 60.605 88.7187 60.605 93.7947 56.209 96.3327"></polygon>
            <polygon id="Fill-91" fill="#23528E" points="51.813 104.2063 51.813 99.1303 56.209 96.5933 60.605 99.1303 60.605 104.2063 56.209 106.7443"></polygon>
            <path d="M137.5547,37.343 L136.5457,37.343 C136.1937,35.23 135.6297,33.916 134.8557,33.305 C134.0567,32.648 133.0477,32.437 130.9827,32.437 L129.7617,32.437 C128.4937,32.437 128.2827,32.601 128.2827,33.611 L128.2827,38.963 L128.8467,38.963 C131.0757,38.963 132.0147,38.047 132.1327,35.747 L133.2357,35.747 L133.2357,43.446 L132.1327,43.446 C132.0857,42.061 131.8507,41.31 131.2407,40.7 C130.7707,40.207 130.1837,40.066 128.7517,40.066 L128.2827,40.066 L128.2827,46.051 C128.2827,46.545 128.3057,46.685 128.4707,46.826 C128.6817,47.038 129.2687,47.178 129.9727,47.178 L131.5217,47.178 C133.4937,47.178 134.8317,46.733 135.5597,45.794 C136.1227,45.113 136.6627,43.657 136.9677,42.014 L138.0007,42.014 L137.5317,48.281 L123.1187,48.281 L123.1187,47.178 L123.5407,47.178 C125.4427,47.178 125.6537,47.061 125.6537,46.075 L125.6537,45.394 L125.6537,34.221 L125.6537,33.54 C125.6537,32.554 125.4427,32.437 123.5407,32.437 L123.1187,32.437 L123.1187,31.334 L137.2257,31.334 L137.5547,37.343 Z" id="Fill-92" fill="#000000"></path>
            <path d="M146.8052,39.9953 C146.9232,39.6433 147.0162,39.2673 147.0162,39.0093 C147.0162,38.4703 146.5712,38.1883 145.7492,38.1883 L145.4202,38.1883 L145.4202,37.3433 L150.1152,37.3433 L150.1152,38.1883 L150.0212,38.1883 C149.1292,38.1883 148.4722,38.8453 147.8382,40.3943 L144.5052,48.6343 L143.6832,48.6343 L139.6462,39.1973 C139.3172,38.3993 138.9892,38.1883 138.0972,38.1883 L137.9092,38.1883 L137.9092,37.3433 L143.4492,37.3433 L143.4492,38.1883 L143.1202,38.1883 C142.1582,38.1883 141.8522,38.3283 141.8522,38.7273 C141.8522,38.8693 141.8992,39.0793 141.9702,39.2213 L144.6452,45.4413 L146.8052,39.9953 Z" id="Fill-94" fill="#000000"></path>
            <path d="M151.4531,42.8357 C151.4531,45.9347 152.3681,47.6247 154.0581,47.6247 C155.7481,47.6247 156.6641,45.9347 156.6641,42.8127 C156.6641,39.7137 155.7481,38.0007 154.1051,38.0007 C152.3451,38.0007 151.4531,39.6437 151.4531,42.8357 M159.1291,42.8127 C159.1291,46.0517 156.8751,48.6337 154.0581,48.6337 C151.2411,48.6337 148.9881,46.0517 148.9881,42.8357 C148.9881,39.5497 151.2411,36.9907 154.1051,36.9907 C156.8751,36.9907 159.1291,39.5967 159.1291,42.8127" id="Fill-96" fill="#000000"></path>
            <path d="M162.4971,45.3943 L162.4971,46.3333 C162.4971,47.2723 162.7551,47.4363 164.2811,47.4363 L164.4451,47.4363 L164.4451,48.2813 L158.3651,48.2813 L158.3651,47.4363 L158.5301,47.4363 C160.0321,47.4363 160.2911,47.2723 160.2911,46.3333 L160.2911,45.3943 L160.2911,33.4233 C160.2911,32.4133 160.1491,32.2493 159.3051,32.2493 L158.1541,32.2493 L158.1541,31.2403 L162.4971,30.9813 L162.4971,45.3943 Z" id="Fill-98" fill="#000000"></path>
            <path d="M172.3838,46.4978 C171.3508,47.9998 170.2718,48.6338 168.7218,48.6338 C167.3138,48.6338 166.1868,48.0938 165.5528,47.1318 C165.2008,46.5918 165.1078,46.0518 165.1078,44.8548 L165.1078,39.7848 C165.1078,38.7748 164.9658,38.6108 164.0978,38.6108 L163.2058,38.6108 L163.2058,37.6018 L167.3138,37.3428 L167.3138,44.5028 C167.3138,45.7938 167.3608,46.0278 167.6658,46.4748 C167.9708,46.9438 168.5808,47.2018 169.3088,47.2018 C170.4588,47.2018 171.3978,46.5918 171.8908,45.5588 C172.2428,44.7838 172.3838,44.0098 172.3838,42.6718 L172.3838,39.7848 C172.3838,38.7748 172.2428,38.6108 171.3738,38.6108 L170.1778,38.6108 L170.1778,37.6018 L174.5898,37.3428 L174.5898,45.5588 C174.5898,47.0608 174.7788,47.2718 176.0698,47.2718 L176.6558,47.2718 L176.6558,48.2818 L172.3838,48.4458 L172.3838,46.4978 Z" id="Fill-100" fill="#000000"></path>
            <path d="M182.8086,37.343 L182.8086,38.352 L179.3576,38.352 L179.3576,44.76 C179.3576,45.606 179.4276,46.193 179.5696,46.521 C179.7336,46.92 180.2036,47.202 180.7436,47.202 C181.8926,47.202 182.5026,46.122 182.5736,44.01 L183.5596,44.01 C183.5826,44.244 183.5826,44.408 183.5826,44.55 C183.5826,45.841 183.1366,47.085 182.3626,47.836 C181.8226,48.352 181.0246,48.634 180.1086,48.634 C178.7466,48.634 177.8086,48.094 177.4326,47.108 C177.1986,46.568 177.1516,45.981 177.1516,44.338 L177.1516,38.352 L175.2266,38.352 L175.2266,37.437 C177.1276,37.296 178.1606,35.747 178.3956,32.695 L179.3576,32.695 L179.3576,37.343 L182.8086,37.343 Z" id="Fill-102" fill="#000000"></path>
            <path d="M187.4844,32.8596 C187.4844,33.6106 186.8744,34.2206 186.0994,34.2206 C185.3724,34.2206 184.7604,33.5876 184.7604,32.8596 C184.7604,32.1086 185.3724,31.4986 186.1234,31.4986 C186.8744,31.4986 187.4844,32.1086 187.4844,32.8596 Z M187.2254,45.3946 L187.2254,46.3336 C187.2254,47.2726 187.4844,47.4366 189.0094,47.4366 L189.1734,47.4366 L189.1734,48.2816 L183.0944,48.2816 L183.0944,47.4366 L183.2584,47.4366 C184.7604,47.4366 185.0194,47.2726 185.0194,46.3336 L185.0194,45.3946 L185.0194,39.5296 C185.0194,38.5206 184.8794,38.3566 184.0094,38.3566 L182.7634,38.3566 L182.7634,37.3466 L187.2254,37.2236 L187.2254,45.3946 Z" id="Fill-104" fill="#000000"></path>
            <path d="M190.8965,42.8357 C190.8965,45.9347 191.8125,47.6247 193.5015,47.6247 C195.1925,47.6247 196.1075,45.9347 196.1075,42.8127 C196.1075,39.7137 195.1925,38.0007 193.5485,38.0007 C191.7895,38.0007 190.8965,39.6437 190.8965,42.8357 M198.5725,42.8127 C198.5725,46.0517 196.3195,48.6337 193.5015,48.6337 C190.6855,48.6337 188.4315,46.0517 188.4315,42.8357 C188.4315,39.5497 190.6855,36.9907 193.5485,36.9907 C196.3195,36.9907 198.5725,39.5967 198.5725,42.8127" id="Fill-106" fill="#000000"></path>
            <path d="M202.0703,39.2444 C203.1033,37.6954 204.2773,36.9914 205.7793,36.9914 C207.1643,36.9914 208.3613,37.6714 208.9483,38.7984 C209.3713,39.5964 209.4413,40.0184 209.4413,41.7094 L209.4413,45.3944 L209.4413,46.3334 C209.4413,47.2724 209.6993,47.4364 211.2013,47.4364 L211.2963,47.4364 L211.2963,48.2814 L205.3563,48.2814 L205.3563,47.4364 L205.4503,47.4364 C206.9763,47.4364 207.2343,47.2724 207.2343,46.3334 L207.2343,45.3944 L207.2343,41.5914 C207.2343,40.4654 207.0703,39.7374 206.7173,39.2444 C206.3663,38.7744 205.6623,38.4224 205.0513,38.4224 C204.0423,38.4224 202.9853,39.1504 202.4933,40.2064 C202.2343,40.7464 202.0703,41.8034 202.0703,42.9534 L202.0703,45.3944 L202.0703,46.3334 C202.0703,47.2724 202.3283,47.4364 203.8543,47.4364 L203.9483,47.4364 L203.9483,48.2814 L198.0093,48.2814 L198.0093,47.4364 L198.1033,47.4364 C199.6053,47.4364 199.8643,47.2724 199.8643,46.3334 L199.8643,45.3944 L199.8643,39.7844 C199.8643,38.7744 199.7223,38.6104 198.8543,38.6104 L198.0093,38.6104 L198.0093,37.6014 L202.0703,37.3434 L202.0703,39.2444 Z" id="Fill-108" fill="#000000"></path>
            <path d="M231.2949,37.7654 L230.2849,37.7654 C229.3229,34.0094 227.4689,32.0844 224.7919,32.0844 C221.5289,32.0844 219.7929,34.8784 219.7929,40.1134 C219.7929,42.6244 220.1679,44.2914 221.0369,45.5824 C221.8349,46.7564 223.3599,47.5304 224.8629,47.5304 C226.3889,47.5304 227.8909,46.7324 228.4779,45.5824 C228.7599,45.0184 228.9469,44.0794 228.9469,43.0704 C228.9469,41.7794 228.7829,41.6624 226.8119,41.6624 L226.3649,41.6624 L226.3649,40.5584 L233.8299,40.5584 L233.8299,41.6624 L233.4779,41.6624 C232.2099,41.6624 231.7179,41.7564 231.5059,41.9914 C231.3649,42.1554 231.3649,42.1784 231.3649,43.4464 L231.3649,48.6104 L230.3789,48.6104 L229.5109,46.4974 C227.9849,48.0234 226.6009,48.6344 224.6279,48.6344 C222.3749,48.6344 220.2149,47.6714 218.7599,46.0284 C217.3989,44.5024 216.6939,42.5074 216.6939,40.1134 C216.6939,36.9444 217.7739,34.5734 220.0979,32.6954 C221.5759,31.4984 223.0319,30.9814 224.8869,30.9814 C226.6009,30.9814 227.6329,31.3804 229.1589,32.6014 L230.0739,31.1694 L230.9659,31.1694 L231.2949,37.7654 Z" id="Fill-110" fill="#000000"></path>
            <path d="M240.8369,42.5071 C239.0059,42.8121 238.0909,43.0471 237.3619,43.3761 C236.3299,43.8691 235.8369,44.5731 235.8369,45.5591 C235.8369,46.6151 236.6349,47.3901 237.6909,47.3901 C238.6999,47.3901 239.7799,46.8031 240.3669,45.9341 C240.7669,45.3241 240.8369,44.9951 240.8369,43.5871 L240.8369,42.5071 Z M243.0429,45.4421 C243.0429,46.6151 243.2779,47.0611 243.9359,47.0611 C244.1229,47.0611 244.2169,47.0381 244.5929,46.8971 C244.7569,46.8261 244.8509,46.8031 244.9439,46.8031 C245.0619,46.8031 245.1799,46.9201 245.1799,47.0851 C245.1799,47.7651 244.0759,48.4461 243.0199,48.4461 C241.9159,48.4461 241.3299,47.9771 240.9539,46.7791 C239.9439,47.9771 238.4889,48.6341 236.8699,48.6341 C234.8039,48.6341 233.4659,47.5541 233.4659,45.8871 C233.4659,44.4081 234.4519,43.3051 236.4709,42.5541 C237.6209,42.1081 238.3719,41.9201 240.8369,41.4981 L240.8369,40.5821 C240.8369,39.5261 240.6729,38.9631 240.2269,38.5871 C239.8509,38.2351 239.0289,38.0001 238.3019,38.0001 C237.1749,38.0001 236.2119,38.4231 236.2119,38.9161 C236.2119,38.9861 236.2359,39.0571 236.3769,39.2211 C236.6109,39.5491 236.7289,39.8781 236.7289,40.1831 C236.7289,40.8871 236.1899,41.3811 235.4609,41.3811 C234.6399,41.3811 234.0999,40.8171 234.0999,39.9251 C234.0999,38.2351 236.0479,36.9911 238.6779,36.9911 C240.1799,36.9911 241.3299,37.3201 242.1049,37.9301 C242.7849,38.4931 243.0429,39.2441 243.0429,40.7231 L243.0429,45.4421 Z" id="Fill-112" fill="#000000"></path>
            <path d="M248.9844,39.1506 C249.8994,37.6716 250.9564,36.9906 252.3644,36.9906 C253.9374,36.9906 255.2054,37.9296 255.6034,39.3376 C256.6134,37.7186 257.7404,36.9906 259.2654,36.9906 C260.3924,36.9906 261.3544,37.4606 262.0364,38.3286 C262.6454,39.1276 262.7874,39.6196 262.7874,41.0756 L262.7874,45.3946 L262.7874,46.3096 C262.7874,47.2726 263.0454,47.4366 264.5474,47.4366 L264.6414,47.4366 L264.6414,48.2816 L258.7024,48.2816 L258.7024,47.4366 L258.7964,47.4366 C260.3224,47.4366 260.5804,47.2726 260.5804,46.3336 L260.5804,45.3946 L260.5804,41.5446 C260.5804,40.6296 260.5094,40.1126 260.2984,39.5966 C259.9934,38.8686 259.3594,38.4226 258.5854,38.4226 C256.9414,38.4226 255.8854,39.9246 255.8854,42.2726 L255.8854,45.3946 L255.8854,46.3336 C255.8854,47.2726 256.1434,47.4366 257.6464,47.4366 L257.7404,47.4366 L257.7404,48.2816 L251.8004,48.2816 L251.8004,47.4366 L251.8944,47.4366 C253.4214,47.4366 253.6784,47.2726 253.6784,46.3336 L253.6784,45.3946 L253.6784,41.2866 C253.6784,40.3236 253.5384,39.6436 253.2104,39.1976 C252.9274,38.7516 252.2704,38.4226 251.6604,38.4226 C250.1344,38.4226 248.9844,39.9716 248.9844,42.0616 L248.9844,45.3946 L248.9844,46.3096 C248.9844,47.2726 249.2424,47.4366 250.7454,47.4366 L250.8384,47.4366 L250.8384,48.2816 L244.9234,48.2816 L244.9234,47.4366 L245.0174,47.4366 C246.5194,47.4366 246.7774,47.2726 246.7774,46.3096 L246.7774,45.3946 L246.7774,39.7846 C246.7774,38.7746 246.6364,38.6106 245.7684,38.6106 L244.8054,38.6106 L244.8054,37.6016 L248.9844,37.3426 L248.9844,39.1506 Z" id="Fill-114" fill="#000000"></path>
            <path d="M268.9229,32.8596 C268.9229,33.6106 268.3129,34.2206 267.5379,34.2206 C266.8109,34.2206 266.1999,33.5876 266.1999,32.8596 C266.1999,32.1086 266.8109,31.4986 267.5619,31.4986 C268.3129,31.4986 268.9229,32.1086 268.9229,32.8596 Z M268.6649,45.3946 L268.6649,46.3336 C268.6649,47.2726 268.9229,47.4366 270.4479,47.4366 L270.6129,47.4366 L270.6129,48.2816 L264.5329,48.2816 L264.5329,47.4366 L264.6969,47.4366 C266.1999,47.4366 266.4579,47.2726 266.4579,46.3336 L266.4579,45.3946 L266.4579,39.7846 C266.4579,38.7746 266.3179,38.6106 265.4479,38.6106 L264.2509,38.6106 L264.2509,37.6016 L268.6649,37.3426 L268.6649,45.3946 Z" id="Fill-116" fill="#000000"></path>
            <path d="M274.5371,39.2444 C275.5701,37.6954 276.7441,36.9914 278.2461,36.9914 C279.6311,36.9914 280.8281,37.6714 281.4151,38.7984 C281.8381,39.5964 281.9081,40.0184 281.9081,41.7094 L281.9081,45.3944 L281.9081,46.3334 C281.9081,47.2724 282.1661,47.4364 283.6691,47.4364 L283.7631,47.4364 L283.7631,48.2814 L277.8231,48.2814 L277.8231,47.4364 L277.9171,47.4364 C279.4431,47.4364 279.7011,47.2724 279.7011,46.3334 L279.7011,45.3944 L279.7011,41.5914 C279.7011,40.4654 279.5371,39.7374 279.1851,39.2444 C278.8331,38.7744 278.1291,38.4224 277.5181,38.4224 C276.5091,38.4224 275.4531,39.1504 274.9601,40.2064 C274.7011,40.7464 274.5371,41.8034 274.5371,42.9534 L274.5371,45.3944 L274.5371,46.3334 C274.5371,47.2724 274.7961,47.4364 276.3211,47.4364 L276.4151,47.4364 L276.4151,48.2814 L270.4761,48.2814 L270.4761,47.4364 L270.5701,47.4364 C272.0721,47.4364 272.3311,47.2724 272.3311,46.3334 L272.3311,45.3944 L272.3311,39.7844 C272.3311,38.7744 272.1901,38.6104 271.3211,38.6104 L270.4761,38.6104 L270.4761,37.6014 L274.5371,37.3434 L274.5371,39.2444 Z" id="Fill-118" fill="#000000"></path>
            <path d="M286.1357,40.9109 C286.1357,42.6719 287.0507,43.7749 288.5057,43.7749 C290.0087,43.7749 290.9007,42.6719 290.9007,40.8409 C290.9007,39.0329 290.0787,37.9999 288.6007,37.9999 C287.0277,37.9999 286.1357,39.0569 286.1357,40.9109 Z M286.6517,48.5629 C285.5257,49.1499 285.1027,49.6669 285.1027,50.4409 C285.1027,51.4979 286.2297,52.0849 288.2007,52.0849 C290.8297,52.0849 292.3557,51.3099 292.3557,49.9719 C292.3557,49.2209 291.7687,48.7039 290.8297,48.6109 C290.4777,48.5629 290.3367,48.5629 288.3887,48.5629 L286.6517,48.5629 Z M289.6097,46.5449 C291.2297,46.5449 291.9807,46.6389 292.5907,46.8729 C293.4587,47.2249 293.9987,48.1639 293.9987,49.3379 C293.9987,51.8029 292.0277,53.0469 288.1077,53.0469 C284.9617,53.0469 283.1547,52.1789 283.1547,50.6289 C283.1547,49.6669 283.8587,48.9149 285.3137,48.3989 C284.2107,48.0239 283.7407,47.4129 283.7407,46.3799 C283.7407,45.0889 284.3987,44.3849 285.9707,44.0329 C284.7497,43.4699 283.9987,42.2729 283.9987,40.8879 C283.9987,38.5399 285.8297,36.9909 288.6237,36.9909 C289.7967,36.9909 290.5477,37.2259 291.5337,37.8829 C292.6147,36.8969 293.0357,36.6619 293.7877,36.6619 C294.7027,36.6619 295.3367,37.2259 295.3367,38.0239 C295.3367,38.6579 294.8667,39.1509 294.2807,39.1509 C293.6937,39.1509 293.3187,38.8459 293.2247,38.2819 C293.1777,38.0239 293.1077,37.9529 292.9897,37.9529 C292.8017,37.9529 292.5907,38.0939 292.1917,38.5169 C292.8487,39.2909 293.0607,39.8779 293.0607,40.8169 C293.0607,42.3669 292.2617,43.5869 290.8537,44.2209 C290.0787,44.5729 289.7267,44.6199 287.4967,44.6669 C285.9237,44.7139 285.2897,45.0189 285.2897,45.7229 C285.2897,45.9809 285.4067,46.2399 285.5727,46.3329 C285.8537,46.4979 285.9237,46.5209 287.2147,46.5449 L289.6097,46.5449 Z" id="Fill-120" fill="#000000"></path>
            <path d="M144.123,60.4499 L142.634,60.4499 C142.115,57.3339 141.284,55.3959 140.142,54.4949 C138.965,53.5259 137.476,53.2149 134.43,53.2149 L132.63,53.2149 C130.761,53.2149 130.449,53.4569 130.449,54.9459 L130.449,62.8389 L131.28,62.8389 C134.568,62.8389 135.953,61.4889 136.126,58.0959 L137.753,58.0959 L137.753,69.4499 L136.126,69.4499 C136.057,67.4079 135.711,66.2999 134.81,65.3999 C134.118,64.6729 133.253,64.4659 131.141,64.4659 L130.449,64.4659 L130.449,73.2929 C130.449,74.0199 130.483,74.2279 130.726,74.4349 C131.038,74.7469 131.903,74.9549 132.941,74.9549 L135.226,74.9549 C138.134,74.9549 140.107,74.2969 141.18,72.9119 C142.011,71.9079 142.807,69.7619 143.257,67.3389 L144.781,67.3389 L144.088,76.5819 L122.833,76.5819 L122.833,74.9549 L123.456,74.9549 C126.26,74.9549 126.572,74.7819 126.572,73.3269 L126.572,72.3239 L126.572,55.8459 L126.572,54.8419 C126.572,53.3879 126.26,53.2149 123.456,53.2149 L122.833,53.2149 L122.833,51.5879 L143.638,51.5879 L144.123,60.4499 Z" id="Fill-122" fill="#000000"></path>
            <path d="M150.9419,63.2536 C152.4649,60.9686 154.1959,59.9306 156.4109,59.9306 C158.4539,59.9306 160.2199,60.9346 161.0849,62.5956 C161.7079,63.7736 161.8119,64.3966 161.8119,66.8886 L161.8119,72.3236 L161.8119,73.7086 C161.8119,75.0926 162.1919,75.3356 164.4079,75.3356 L164.5469,75.3356 L164.5469,76.5816 L155.7879,76.5816 L155.7879,75.3356 L155.9269,75.3356 C158.1769,75.3356 158.5579,75.0926 158.5579,73.7086 L158.5579,72.3236 L158.5579,66.7156 C158.5579,65.0536 158.3159,63.9806 157.7959,63.2536 C157.2759,62.5616 156.2379,62.0426 155.3379,62.0426 C153.8499,62.0426 152.2919,63.1156 151.5649,64.6726 C151.1839,65.4696 150.9419,67.0266 150.9419,68.7236 L150.9419,72.3236 L150.9419,73.7086 C150.9419,75.0926 151.3219,75.3356 153.5719,75.3356 L153.7109,75.3356 L153.7109,76.5816 L144.9529,76.5816 L144.9529,75.3356 L145.0909,75.3356 C147.3069,75.3356 147.6879,75.0926 147.6879,73.7086 L147.6879,72.3236 L147.6879,64.0496 C147.6879,62.5616 147.4799,62.3186 146.1989,62.3186 L144.9529,62.3186 L144.9529,60.8306 L150.9419,60.4496 L150.9419,63.2536 Z" id="Fill-124" fill="#000000"></path>
            <path d="M167.9736,65.7117 C167.9736,68.3077 169.3236,69.9347 171.4696,69.9347 C173.6856,69.9347 175.0006,68.3077 175.0006,65.6077 C175.0006,62.9417 173.7886,61.4197 171.6086,61.4197 C169.2886,61.4197 167.9736,62.9767 167.9736,65.7117 Z M168.7346,76.9977 C167.0736,77.8627 166.4506,78.6247 166.4506,79.7667 C166.4506,81.3247 168.1116,82.1897 171.0196,82.1897 C174.8966,82.1897 177.1466,81.0477 177.1466,79.0737 C177.1466,77.9667 176.2816,77.2047 174.8966,77.0657 C174.3766,76.9977 174.1696,76.9977 171.2966,76.9977 L168.7346,76.9977 Z M173.0966,74.0197 C175.4856,74.0197 176.5926,74.1587 177.4936,74.5047 C178.7736,75.0237 179.5706,76.4087 179.5706,78.1397 C179.5706,81.7737 176.6616,83.6087 170.8806,83.6087 C166.2426,83.6087 163.5776,82.3287 163.5776,80.0437 C163.5776,78.6247 164.6156,77.5167 166.7616,76.7547 C165.1346,76.2007 164.4426,75.3007 164.4426,73.7777 C164.4426,71.8737 165.4106,70.8357 167.7306,70.3157 C165.9306,69.4847 164.8236,67.7197 164.8236,65.6767 C164.8236,62.2157 167.5236,59.9307 171.6426,59.9307 C173.3736,59.9307 174.4816,60.2767 175.9356,61.2457 C177.5276,59.7927 178.1506,59.4457 179.2586,59.4457 C180.6086,59.4457 181.5426,60.2767 181.5426,61.4537 C181.5426,62.3887 180.8506,63.1157 179.9856,63.1157 C179.1196,63.1157 178.5666,62.6657 178.4276,61.8347 C178.3586,61.4537 178.2546,61.3497 178.0806,61.3497 C177.8046,61.3497 177.4936,61.5577 176.9046,62.1807 C177.8736,63.3227 178.1856,64.1887 178.1856,65.5727 C178.1856,67.8577 177.0086,69.6577 174.9316,70.5927 C173.7886,71.1117 173.2696,71.1817 169.9816,71.2507 C167.6616,71.3197 166.7266,71.7697 166.7266,72.8087 C166.7266,73.1897 166.9006,73.5697 167.1426,73.7087 C167.5576,73.9507 167.6616,73.9847 169.5656,74.0197 L173.0966,74.0197 Z" id="Fill-126" fill="#000000"></path>
            <path d="M188.8818,55.0281 C188.8818,56.1361 187.9818,57.0361 186.8388,57.0361 C185.7658,57.0361 184.8658,56.1011 184.8658,55.0281 C184.8658,53.9211 185.7658,53.0201 186.8738,53.0201 C187.9818,53.0201 188.8818,53.9211 188.8818,55.0281 Z M188.5008,72.3231 L188.5008,73.7081 C188.5008,75.0931 188.8818,75.3361 191.1318,75.3361 L191.3738,75.3361 L191.3738,76.5821 L182.4078,76.5821 L182.4078,75.3361 L182.6508,75.3361 C184.8658,75.3361 185.2468,75.0931 185.2468,73.7081 L185.2468,72.3231 L185.2468,64.0501 C185.2468,62.5611 185.0388,62.3191 183.7578,62.3191 L181.9928,62.3191 L181.9928,60.8311 L188.5008,60.4501 L188.5008,72.3231 Z" id="Fill-128" fill="#000000"></path>
            <path d="M197.4004,63.2536 C198.9234,60.9686 200.6544,59.9306 202.8704,59.9306 C204.9124,59.9306 206.6774,60.9346 207.5434,62.5956 C208.1664,63.7736 208.2704,64.3966 208.2704,66.8886 L208.2704,72.3236 L208.2704,73.7086 C208.2704,75.0926 208.6514,75.3356 210.8664,75.3356 L211.0044,75.3356 L211.0044,76.5816 L202.2474,76.5816 L202.2474,75.3356 L202.3844,75.3356 C204.6354,75.3356 205.0164,75.0926 205.0164,73.7086 L205.0164,72.3236 L205.0164,66.7156 C205.0164,65.0536 204.7744,63.9806 204.2544,63.2536 C203.7354,62.5616 202.6974,62.0426 201.7964,62.0426 C200.3084,62.0426 198.7504,63.1156 198.0234,64.6726 C197.6424,65.4696 197.4004,67.0266 197.4004,68.7236 L197.4004,72.3236 L197.4004,73.7086 C197.4004,75.0926 197.7814,75.3356 200.0314,75.3356 L200.1704,75.3356 L200.1704,76.5816 L191.4114,76.5816 L191.4114,75.3356 L191.5494,75.3356 C193.7654,75.3356 194.1464,75.0926 194.1464,73.7086 L194.1464,72.3236 L194.1464,64.0496 C194.1464,62.5616 193.9384,62.3186 192.6574,62.3186 L191.4114,62.3186 L191.4114,60.8306 L197.4004,60.4496 L197.4004,63.2536 Z" id="Fill-130" fill="#000000"></path>
            <path d="M219.5557,67.3039 C220.6627,67.3039 220.9747,67.0269 220.9747,66.0229 C220.9747,63.2539 219.5897,61.4189 217.4787,61.4189 C215.8167,61.4189 214.7087,62.4229 213.9817,64.4999 C213.6357,65.4699 213.4967,66.2309 213.4967,67.3039 L219.5557,67.3039 Z M213.4627,68.7929 C213.4277,70.6969 213.7047,71.9079 214.3277,72.9469 C215.2277,74.4699 216.5087,75.2319 218.2747,75.2319 C220.5937,75.2319 222.0477,74.1929 223.4667,71.5279 L224.6787,72.1849 C223.2587,75.4739 220.9057,77.1009 217.6167,77.1009 C212.9437,77.1009 209.7927,73.8119 209.7927,68.9659 C209.7927,63.7729 213.1167,59.9299 217.5467,59.9299 C221.7707,59.9299 224.7127,63.5999 224.6787,68.7929 L213.4627,68.7929 Z" id="Fill-132" fill="#000000"></path>
            <path d="M234.7803,67.3039 C235.8873,67.3039 236.1993,67.0269 236.1993,66.0229 C236.1993,63.2539 234.8143,61.4189 232.7033,61.4189 C231.0413,61.4189 229.9333,62.4229 229.2063,64.4999 C228.8603,65.4699 228.7213,66.2309 228.7213,67.3039 L234.7803,67.3039 Z M228.6873,68.7929 C228.6523,70.6969 228.9293,71.9079 229.5523,72.9469 C230.4523,74.4699 231.7333,75.2319 233.4993,75.2319 C235.8183,75.2319 237.2723,74.1929 238.6913,71.5279 L239.9033,72.1849 C238.4833,75.4739 236.1303,77.1009 232.8413,77.1009 C228.1683,77.1009 225.0173,73.8119 225.0173,68.9659 C225.0173,63.7729 228.3413,59.9299 232.7713,59.9299 C236.9953,59.9299 239.9373,63.5999 239.9033,68.7929 L228.6873,68.7929 Z" id="Fill-134" fill="#000000"></path>
            <path d="M245.7881,64.7424 C246.8951,61.6964 248.8001,59.9304 250.9801,59.9304 C252.8151,59.9304 253.9921,61.0384 253.9921,62.7004 C253.9921,64.1194 253.1271,65.0544 251.8811,65.0544 C250.7721,65.0544 249.9761,64.2574 249.9761,63.1504 C249.9761,62.4924 250.1151,62.1464 250.6001,61.5924 C249.1451,61.7654 247.9691,62.8384 247.1381,64.7774 C246.2721,66.7504 245.7881,69.3814 245.7881,71.9774 L245.7881,72.3234 L245.7881,73.7084 C245.7881,75.0934 246.1691,75.3354 248.3851,75.3354 L249.0421,75.3354 L249.0421,76.5814 L239.7991,76.5814 L239.7991,75.3354 L239.9371,75.3354 C242.1871,75.3354 242.5681,75.0934 242.5681,73.7084 L242.5681,72.3234 L242.5681,64.0504 C242.5681,62.5614 242.3601,62.3194 241.0801,62.3194 L239.6601,62.3194 L239.6601,60.8304 L245.7881,60.4504 L245.7881,64.7424 Z" id="Fill-136" fill="#000000"></path>
            <path d="M261.5381,55.0281 C261.5381,56.1361 260.6391,57.0361 259.4961,57.0361 C258.4231,57.0361 257.5221,56.1011 257.5221,55.0281 C257.5221,53.9211 258.4231,53.0201 259.5301,53.0201 C260.6391,53.0201 261.5381,53.9211 261.5381,55.0281 Z M261.1571,72.3231 L261.1571,73.7081 C261.1571,75.0931 261.5381,75.3361 263.7881,75.3361 L264.0311,75.3361 L264.0311,76.5821 L255.0641,76.5821 L255.0641,75.3361 L255.3071,75.3361 C257.5221,75.3361 257.9031,75.0931 257.9031,73.7081 L257.9031,72.3231 L257.9031,64.0501 C257.9031,62.5611 257.6951,62.3191 256.4151,62.3191 L254.6491,62.3191 L254.6491,60.8311 L261.1571,60.4501 L261.1571,72.3231 Z" id="Fill-138" fill="#000000"></path>
            <path d="M270.0576,63.2536 C271.5796,60.9686 273.3116,59.9306 275.5266,59.9306 C277.5696,59.9306 279.3346,60.9346 280.2006,62.5956 C280.8236,63.7736 280.9266,64.3966 280.9266,66.8886 L280.9266,72.3236 L280.9266,73.7086 C280.9266,75.0926 281.3076,75.3356 283.5236,75.3356 L283.6616,75.3356 L283.6616,76.5816 L274.9036,76.5816 L274.9036,75.3356 L275.0416,75.3356 C277.2916,75.3356 277.6726,75.0926 277.6726,73.7086 L277.6726,72.3236 L277.6726,66.7156 C277.6726,65.0536 277.4306,63.9806 276.9116,63.2536 C276.3926,62.5616 275.3536,62.0426 274.4536,62.0426 C272.9646,62.0426 271.4076,63.1156 270.6806,64.6726 C270.2996,65.4696 270.0576,67.0266 270.0576,68.7236 L270.0576,72.3236 L270.0576,73.7086 C270.0576,75.0926 270.4376,75.3356 272.6886,75.3356 L272.8266,75.3356 L272.8266,76.5816 L264.0686,76.5816 L264.0686,75.3356 L264.2066,75.3356 C266.4216,75.3356 266.8026,75.0926 266.8026,73.7086 L266.8026,72.3236 L266.8026,64.0496 C266.8026,62.5616 266.5956,62.3186 265.3146,62.3186 L264.0686,62.3186 L264.0686,60.8306 L270.0576,60.4496 L270.0576,63.2536 Z" id="Fill-140" fill="#000000"></path>
            <path d="M287.0889,65.7117 C287.0889,68.3077 288.4389,69.9347 290.5849,69.9347 C292.8009,69.9347 294.1159,68.3077 294.1159,65.6077 C294.1159,62.9417 292.9039,61.4197 290.7239,61.4197 C288.4039,61.4197 287.0889,62.9767 287.0889,65.7117 Z M287.8509,76.9977 C286.1889,77.8627 285.5659,78.6247 285.5659,79.7667 C285.5659,81.3247 287.2269,82.1897 290.1349,82.1897 C294.0119,82.1897 296.2629,81.0477 296.2629,79.0737 C296.2629,77.9667 295.3969,77.2047 294.0119,77.0657 C293.4929,76.9977 293.2849,76.9977 290.4119,76.9977 L287.8509,76.9977 Z M292.2119,74.0197 C294.6009,74.0197 295.7079,74.1587 296.6089,74.5047 C297.8899,75.0237 298.6859,76.4087 298.6859,78.1397 C298.6859,81.7737 295.7769,83.6087 289.9959,83.6087 C285.3579,83.6087 282.6929,82.3287 282.6929,80.0437 C282.6929,78.6247 283.7309,77.5167 285.8769,76.7547 C284.2499,76.2007 283.5579,75.3007 283.5579,73.7777 C283.5579,71.8737 284.5269,70.8357 286.8469,70.3157 C285.0459,69.4847 283.9389,67.7197 283.9389,65.6767 C283.9389,62.2157 286.6389,59.9307 290.7579,59.9307 C292.4889,59.9307 293.5969,60.2767 295.0509,61.2457 C296.6429,59.7927 297.2669,59.4457 298.3739,59.4457 C299.7239,59.4457 300.6579,60.2767 300.6579,61.4537 C300.6579,62.3887 299.9669,63.1157 299.1009,63.1157 C298.2349,63.1157 297.6819,62.6657 297.5429,61.8347 C297.4739,61.4537 297.3699,61.3497 297.1969,61.3497 C296.9199,61.3497 296.6089,61.5577 296.0199,62.1807 C296.9889,63.3227 297.3009,64.1887 297.3009,65.5727 C297.3009,67.8577 296.1239,69.6577 294.0469,70.5927 C292.9039,71.1117 292.3849,71.1817 289.0969,71.2507 C286.7769,71.3197 285.8429,71.7697 285.8429,72.8087 C285.8429,73.1897 286.0159,73.5697 286.2579,73.7087 C286.6729,73.9507 286.7769,73.9847 288.6809,74.0197 L292.2119,74.0197 Z" id="Fill-142" fill="#000000"></path>
        </g>
    </g>
</svg>