<svg xmlns="http://www.w3.org/2000/svg" width="59" height="64" viewBox="0 0 59 64">
  <g fill="none">
    <path fill="#fff" d="M25.2084961,14.75 L25.2084961,12.6665039 C25.2084961,11.055664 26.5141601,9.75 28.125,9.75 C29.7358399,9.75 31.0415039,11.055664 31.0415039,12.6665039 L31.0415039,14.75"/>
    <path fill="#fff" d="M6.25 8.75C6.25 10.1308594 5.13085937 11.25 3.75 11.25 2.36914062 11.25 1.25 10.1308594 1.25 8.75 1.25 7.36914062 2.36914062 6.25 3.75 6.25 5.13085937 6.25 6.25 7.36914062 6.25 8.75zM57.125 60.25C57.125 61.6308594 56.0058594 62.75 54.625 62.75 53.2441406 62.75 52.125 61.6308594 52.125 60.25 52.125 58.8691406 53.2441406 57.75 54.625 57.75 56.0058594 57.75 57.125 58.8691406 57.125 60.25z"/>
    <path fill="#fff" d="M52,38.6666667 C52,51.9215494 38,62.6666667 28,62.6666667 C18,62.6666667 10.6666667,51.9215494 10.6666667,38.6666667 C10.6666667,25.4117839 18,14.6666667 28,14.6666667 C38,14.6666667 52,25.4117839 52,38.6666667 Z" opacity=".5"/>
    <path fill="#fff" d="M10.6666667,62.6666667 C23.9210612,62.6666667 34.6666667,51.9215494 34.6666667,38.6666667 C34.6666667,25.4117839 23.9210612,14.6666667 10.6666667,14.6666667 L10.6666667,62.6666667 Z" opacity=".2" transform="matrix(-1 0 0 1 45.333 0)"/>
    <path fill="#FFF" d="M38.5351562,26.75 L28.125,26.75 L28.125,38.6352539 L40.1401367,38.6352539 C40.1298827,34.3066406 39.5473632,30.2490235 38.5351562,26.75 L38.5351562,26.75 Z"/>
    <path fill="#fff" d="M38.5351562,50.5209961 L28.125,50.5209961 L28.125,38.6357423 L40.1401367,38.6357423 C40.1298827,42.9638673 39.5473632,47.0214844 38.5351562,50.5209961 L38.5351562,50.5209961 Z"/>
    <path fill="#B0E7F8" d="M17.7148438,50.5209961 L28.125,50.5209961 L28.125,38.6357423 L16.1098633,38.6357423 C16.1201173,42.9638673 16.7026368,47.0214844 17.7148438,50.5209961 L17.7148438,50.5209961 Z"/>
    <path fill="#57C2F1" d="M28.125,62.7495118 L28.125,50.8647461 L17.7802735,50.8647461 C19.8608399,57.9658203 23.7138672,62.7382813 28.125,62.7495118 Z"/>
    <path fill="#221E1F" d="M53.3911132,38.75 C53.3911132,26.2407226 44.246582,15.8286133 32.2919922,13.8432617 L32.2919922,12.6669922 C32.2919922,10.8046875 31.0639649,9.22412112 29.375,8.6918945 L29.375,1.25 C29.375,0.55957025 28.8154297,0 28.125,0 C27.4345702,0 26.875,0.55957025 26.875,1.25 L26.875,8.6918945 C25.1865235,9.22412112 23.9584961,10.8041992 23.9584961,12.6665039 L23.9584961,13.8481445 C12.019043,15.847168 2.89111325,26.2519531 2.89111325,38.75 C2.89111325,52.6728515 14.2177735,64 28.1411132,64 C30.5864257,64 33.0048827,63.6508789 35.3291015,62.961914 C35.9907226,62.765625 36.368164,62.0698243 36.171875,61.4082031 C36.008789,60.8569336 35.4990235,60.5043945 34.9511719,60.5146485 C35.9697265,59.3666992 36.9091797,57.949707 37.7441406,56.2792969 C38.4018555,54.9638672 38.9770507,53.5288086 39.4643555,52 L46.6430664,52 C45.8061524,53.1611328 44.8530274,54.2548828 43.7875976,55.2646485 C43.2866211,55.7397461 43.2651367,56.5307617 43.7402344,57.0322265 C44.215332,57.5332031 45.0063476,57.5541993 45.5073242,57.0795899 C47.9711914,54.7441406 49.909668,51.991211 51.269043,48.8959961 C52.6772461,45.6914062 53.3911132,42.277832 53.3911132,38.75 Z M41.3754882,37.5 C41.2924805,34.1665039 40.8769531,30.9501953 40.1621094,28 L48,28 C48.0605469,28 48.1201172,27.9941406 48.178711,27.9858399 C49.7216797,30.8466798 50.6694336,34.0737305 50.855957,37.5 L41.3754882,37.5 Z M26.8911132,61.3374024 C23.8798827,60.5605469 21.2060547,57.0253906 19.4677735,52 L26.8911132,52 L26.8911132,61.3374024 Z M18.7128906,49.5 C17.9638672,46.6274414 17.5004882,43.399414 17.4082031,40 L26.8911132,40 L26.8911132,49.5 L18.7128906,49.5 Z M8.10302737,49.5141601 C6.56005862,46.6533203 5.61230475,43.4262695 5.42578125,40 L14.9067382,40 C14.9892577,43.3334961 15.4047851,46.5498048 16.1196289,49.5 L8.28173825,49.5 C8.22119137,49.5 8.16162112,49.5058594 8.10302737,49.5141601 Z M8.10302737,27.9858399 C8.16162112,27.9941406 8.22119137,28 8.28173825,28 L16.1196289,28 C15.4047851,30.9501953 14.9892577,34.1665039 14.9067382,37.5 L5.42578125,37.5 C5.61230475,34.0737305 6.56005862,30.8466798 8.10302737,27.9858399 L8.10302737,27.9858399 Z M36.8139649,25.5 L29.3911132,25.5 L29.3911132,16.1625976 C32.4018555,16.9394531 35.0756836,20.4746094 36.8139649,25.5 Z M26.8911132,16.1625976 L26.8911132,25.5 L19.4677735,25.5 C21.2055664,20.4746094 23.8798827,16.9394531 26.8911132,16.1625976 Z M26.8911132,28 L26.8911132,37.5 L17.4082031,37.5 C17.5004882,34.100586 17.9638672,30.8725586 18.7128906,28 L26.8911132,28 Z M29.3911132,40 L38.8735351,40 C38.7817382,43.399414 38.3178711,46.6274414 37.5688476,49.5 L29.3911132,49.5 L29.3911132,40 Z M29.3911132,37.5 L29.3911132,28 L37.5688476,28 C38.3178711,30.8725586 38.7817382,34.100586 38.8735351,37.5 L29.3911132,37.5 Z M46.6230469,25.5 L39.4643555,25.5 C38.9770507,23.9711914 38.4018555,22.5361328 37.7441406,21.2207031 C36.9277344,19.5878906 36.012207,18.1977539 35.0200195,17.0639649 C39.7373047,18.5639649 43.7924805,21.5634765 46.6230469,25.5 Z M26.4584961,12.6665039 C26.4584961,11.7475586 27.2060547,11 28.125,11 C29.0439452,11 29.7915039,11.7475586 29.7915039,12.6665039 L29.7915039,13.5551758 C29.2456055,13.5200195 28.6958007,13.5 28.140625,13.5 C27.5751952,13.5 27.0146485,13.5205078 26.4580077,13.5576173 L26.4580077,12.6665039 L26.4584961,12.6665039 Z M21.2617187,17.0639649 C20.2695312,18.1977539 19.3540039,19.5878906 18.5375976,21.2207031 C17.8798827,22.5361328 17.3046875,23.9711914 16.8173827,25.5 L9.65869137,25.5 C12.4892577,21.5634765 16.5444336,18.5639649 21.2617187,17.0639649 Z M9.65869137,52 L16.8173827,52 C17.3046875,53.5288086 17.8798827,54.9638673 18.5375976,56.2792969 C19.3540039,57.9121094 20.2695312,59.3022461 21.2617187,60.4360351 C16.5444336,58.9360351 12.4892577,55.9365235 9.65869137,52 Z M29.3911132,61.3374024 L29.3911132,52 L36.8139649,52 C35.0756836,57.0253906 32.4018555,60.5605469 29.3911132,61.3374024 L29.3911132,61.3374024 Z M48,49.5 L40.1621094,49.5 C40.8769531,46.5498048 41.2924805,43.3334961 41.3754882,40 L50.8569336,40 C50.6767577,43.3808594 49.7651367,46.6098633 48.1982422,49.5170899 C48.133789,49.506836 48.0673827,49.5 48,49.5 L48,49.5 Z"/>
    <path fill="#000" d="M49.625 9.25L50.875 9.25 50.875 10.5C50.875 11.1904297 51.4345702 11.75 52.125 11.75 52.8154297 11.75 53.375 11.1904297 53.375 10.5L53.375 9.25 54.625 9.25C55.3154297 9.25 55.875 8.69042975 55.875 8 55.875 7.30957025 55.3154297 6.75 54.625 6.75L53.375 6.75 53.375 5.5C53.375 4.80957025 52.8154297 4.25 52.125 4.25 51.4345702 4.25 50.875 4.80957025 50.875 5.5L50.875 6.75 49.625 6.75C48.9345702 6.75 48.375 7.30957025 48.375 8 48.375 8.69042975 48.9345702 9.25 49.625 9.25zM6.625 59L5.375 59 5.375 57.75C5.375 57.0595703 4.81542975 56.5 4.125 56.5 3.43457025 56.5 2.875 57.0595703 2.875 57.75L2.875 59 1.625 59C.93457025 59 .375 59.5595703.375 60.25.375 60.9404297.93457025 61.5 1.625 61.5L2.875 61.5 2.875 62.75C2.875 63.4404297 3.43457025 64 4.125 64 4.81542975 64 5.375 63.4404297 5.375 62.75L5.375 61.5 6.625 61.5C7.31542975 61.5 7.875 60.9404297 7.875 60.25 7.875 59.5595703 7.31542975 59 6.625 59zM3.75 12.5C5.81787112 12.5 7.5 10.8178711 7.5 8.75 7.5 6.68212888 5.81787112 5 3.75 5 1.68212887 5 0 6.68212888 0 8.75 0 10.8178711 1.68212887 12.5 3.75 12.5zM3.75 7.5C4.43945312 7.5 5 8.06054688 5 8.75 5 9.43945312 4.43945312 10 3.75 10 3.06054687 10 2.5 9.43945312 2.5 8.75 2.5 8.06054688 3.06054687 7.5 3.75 7.5zM54.625 56.5C52.5571289 56.5 50.875 58.1821289 50.875 60.25 50.875 62.3178711 52.5571289 64 54.625 64 56.6928711 64 58.375 62.3178711 58.375 60.25 58.375 58.1821289 56.6928711 56.5 54.625 56.5zM54.625 61.5C53.9355469 61.5 53.375 60.9394531 53.375 60.25 53.375 59.5605469 53.9355469 59 54.625 59 55.3144531 59 55.875 59.5605469 55.875 60.25 55.875 60.9394531 55.3144531 61.5 54.625 61.5zM40.1411132 58.2885743C39.8125 58.2885743 39.4902344 58.4223633 39.2573242 58.6547851 39.0239257 58.8876953 38.8911132 59.209961 38.8911132 59.5385743 38.8911132 59.8676758 39.0239257 60.1899414 39.2573242 60.4223633 39.4902344 60.6547851 39.8110351 60.7885743 40.1411132 60.7885743 40.4702149 60.7885743 40.7924805 60.6547851 41.0249024 60.4223633 41.2573242 60.1899414 41.3911132 59.8676758 41.3911132 59.5385743 41.3911132 59.209961 41.2573242 58.8876953 41.0249024 58.6547851 40.7924805 58.4223633 40.4702149 58.2885743 40.1411132 58.2885743z"/>
  </g>
</svg>
