<svg xmlns="http://www.w3.org/2000/svg" width="64" height="64" viewBox="0 0 64 64">
  <g fill="none">
    <g transform="translate(13.625 1.25)">
      <polygon fill="#57C2F1" points="2.625 0 2.625 4 49.125 4 49.125 0"/>
      <path fill="#F0F0F0" d="M4.10546875 15.9702149L4.10546875 4 .10546875 4 .10546875 19.4350586C1.31103513 18.1450195 2.6518555 16.9824219 4.10546875 15.9702149zM33.6049805 4L33.6049805 16.6733399C35.0766601 17.805664 36.4189453 19.0976563 37.6049805 20.5239258L37.6049805 4 33.6049805 4z"/>
      <path fill="#EC7B53" d="M37.6049805,20.5239258 L37.6049805,20.5253906 C36.4189453,19.0991211 35.0766601,17.8076173 33.6049805,16.675293 L33.6049805,16.6733399 C30.5834961,14.3486328 27.0151368,12.699707 23.1259765,11.9511719 C19.6411133,12.621582 16.413086,14.0146485 13.6054688,15.9702149 L13.6054688,15.972168 C12.1518555,16.984375 10.8110351,18.1469726 9.60546875,19.4375 L9.60546875,19.4350586 C5.430664,23.9023438 2.87548825,29.902832 2.87548825,36.5 C2.87548825,48.6826173 11.590332,58.828125 23.125,61.0473633 C34.6601563,58.828125 43.375,48.6826173 43.375,36.5 C43.375,30.425293 41.2080078,24.855957 37.6049805,20.5239258 L37.6049805,20.5239258 Z M24.871582,40.0629883 C24.871582,43.6381836 21.946289,46.5629883 18.371582,46.5629883 C14.7963868,46.5629883 11.871582,43.6381836 11.871582,40.0629883 L11.871582,33.5634765 L24.871582,33.5634765 L24.871582,40.0629883 Z" opacity=".5"/>
      <path fill="#F0F0F0" d="M21.2485351,45.8862305 C23.3901368,44.8203125 24.871582,42.6069336 24.871582,40.0634765 L24.871582,33.5634765 L17.625,33.5634765 L17.625,40.0634765 C17.625,42.6069336 19.1064452,44.8203125 21.2485351,45.8862305 L21.2485351,45.8862305 Z"/>
      <path fill="#FFC967" d="M24.871582,33.5634765 L24.871582,40.0629883 L26.871582,40.0629883 C28.6586914,40.0629883 30.121582,38.600586 30.121582,36.8129883 C30.121582,35.0258789 28.6586914,33.5634765 26.871582,33.5634765 L24.871582,33.5634765 Z"/>
    </g>
    <path fill="#000" d="M40.496582 33.5634765L25.496582 33.5634765C24.8061524 33.5634765 24.246582 34.1230469 24.246582 34.8134765L24.246582 41.3129883C24.246582 43.336914 25.0268555 45.1816406 26.3022461 46.5629883L25.496582 46.5629883C24.8061524 46.5629883 24.246582 47.1230469 24.246582 47.8129883 24.246582 48.503418 24.8061524 49.0629883 25.496582 49.0629883L38.496582 49.0629883C39.1870117 49.0629883 39.746582 48.503418 39.746582 47.8129883 39.746582 47.1230469 39.1870117 46.5629883 38.496582 46.5629883L37.690918 46.5629883C38.6977539 45.472168 39.3950195 44.0922851 39.644043 42.5629883L40.496582 42.5629883C42.9780274 42.5629883 44.996582 40.5444336 44.996582 38.0629883 44.996582 35.5820312 42.977539 33.5634765 40.496582 33.5634765L40.496582 33.5634765zM26.746582 41.3129883L26.746582 36.0634765 37.246582 36.0634765 37.246582 41.3129883C37.246582 44.2080078 34.8911133 46.5629883 31.996582 46.5629883 29.1015625 46.5629883 26.746582 44.2080078 26.746582 41.3129883zM40.496582 40.0629883L39.746582 40.0629883 39.746582 36.0634765 40.496582 36.0634765C41.5991211 36.0634765 42.496582 36.9604493 42.496582 38.0629883 42.496582 39.1660156 41.5991211 40.0629883 40.496582 40.0629883zM31.9995118 28.5922851C31.8417969 28.5922851 31.6811524 28.5625 31.5258789 28.4985351 30.887207 28.2368164 30.581543 27.5063476 30.84375 26.8676758 31.043457 26.3808594 30.9667969 26.0332031 30.7885743 25.355957 30.584961 24.5820313 30.3066406 23.522461 30.84375 22.2124024 31.1054688 21.5737305 31.8354493 21.2685548 32.4741211 21.5302735 33.112793 21.7919923 33.418457 22.5219726 33.1567383 23.1606445 32.946289 23.6733399 33.024414 24.0283203 33.2060548 24.7202149 33.4072265 25.4853515 33.6826173 26.5327149 33.1567383 27.8164063 32.9584961 28.2998048 32.4916993 28.5922851 31.9995118 28.5922851L31.9995118 28.5922851zM26.9995118 31.0922851C26.8413086 31.0922851 26.6811524 31.0625 26.5258789 30.9985351 25.8867188 30.7368164 25.581543 30.006836 25.8432618 29.3676758 26.0429688 28.8808594 25.9663086 28.5332031 25.7885743 27.855957 25.584961 27.0820313 25.3066406 26.022461 25.8432618 24.7128906 26.1054688 24.0742188 26.8354493 23.7685548 27.4741211 24.0302735 28.112793 24.2919923 28.418457 25.0219726 28.15625 25.6611328 27.946289 26.1738281 28.024414 26.5288086 28.2060548 27.2202149 28.4072265 27.9853515 28.6826173 29.0332031 28.15625 30.3164063 27.9580078 30.7998048 27.4916993 31.0922851 26.9995118 31.0922851zM37 31.0922851C36.8417969 31.0922851 36.6811524 31.0625 36.5258789 30.9985351 35.887207 30.7368164 35.5820312 30.006836 35.84375 29.3676758 36.043457 28.8808594 35.9667969 28.5332031 35.7885743 27.855957 35.5854493 27.0820313 35.3066406 26.022461 35.84375 24.7128906 36.1054688 24.0742188 36.8359375 23.7685548 37.4741211 24.0302735 38.1132812 24.2919923 38.418457 25.0219726 38.1567382 25.6611328 37.9467774 26.1738281 38.024414 26.5288086 38.2060547 27.2202149 38.4072265 27.9853515 38.6826172 29.0332031 38.1567382 30.3164063 37.9584961 30.7998048 37.4916992 31.0922851 37 31.0922851zM38.496582 54.0634765L33.3671875 54.0634765C32.6767578 54.0634765 32.1171875 53.5039063 32.1171875 52.8134765 32.1171875 52.1230469 32.6767578 51.5634765 33.3671875 51.5634765L38.496582 51.5634765C39.1870118 51.5634765 39.746582 52.1230469 39.746582 52.8134765 39.746582 53.5039063 39.1870118 54.0634765 38.496582 54.0634765L38.496582 54.0634765zM29.7758789 54.0629883L29.7460938 54.0629883C29.0561524 54.0629883 28.4960938 53.503418 28.4960938 52.8129883 28.4960938 52.1225586 29.0561524 51.5629883 29.7460938 51.5629883L29.7758789 51.5629883C30.4663086 51.5629883 31.0258789 52.1225586 31.0258789 52.8129883 31.0258789 53.503418 30.4663086 54.0629883 29.7758789 54.0629883z"/>
    <path fill="#221E1F" d="M62.75,0 L1.25,0 C0.55957025,0 0,0.55957025 0,1.25 L0,5.25 C0,5.94042975 0.55957025,6.5 1.25,6.5 L12.4799805,6.5 L12.4799805,20.1987305 C11.5195312,21.2680664 10.6430664,22.4189453 9.86230475,23.6435547 C7.17236325,27.8657226 5.75,32.7436524 5.75,37.75 C5.75,52.2246094 17.5258789,64 32,64 C46.4741211,64 58.25,52.2246094 58.25,37.75 C58.25,31.550293 56.0878906,25.8461914 52.4799805,21.3500976 L52.4799805,6.5 L62.75,6.5 C63.4404297,6.5 64,5.94042975 64,5.25 L64,1.25 C64,0.55957025 63.4404297,0 62.75,0 Z M16.4804688,16.578125 C15.965332,16.9550781 15.465332,17.350586 14.9804688,17.7641601 L14.9804688,6.5 L16.4804688,6.5 L16.4804688,16.578125 Z M32,61.5 C18.9042969,61.5 8.25,50.8457031 8.25,37.75 C8.25,28.5566406 13.6347656,20.1069336 21.9677735,16.2231445 C22.5932617,15.9316406 22.8642578,15.1879883 22.5727539,14.5620117 C22.2807617,13.9365235 21.5371094,13.6655274 20.9116211,13.9570312 C20.2519531,14.2646485 19.6083985,14.5986328 18.9804688,14.9570312 L18.9804688,6.5 L45.9799805,6.5 L45.9799805,15.5424805 C41.9296875,12.9838867 37.1352539,11.5 32,11.5 C31.3061524,11.5 30.6030274,11.5283203 29.9106445,11.5834961 C29.2226562,11.6386719 28.7089844,12.2407226 28.7641601,12.9291992 C28.8188476,13.6171875 29.4208985,14.1298828 30.1098632,14.0756836 C30.7363281,14.0258789 31.3720702,14 32,14 C45.0961914,14 55.75,24.6542969 55.75,37.75 C55.75,50.8457031 45.0957031,61.5 32,61.5 Z M49.9799805,18.6269531 C49.496582,18.1723633 48.9960938,17.7363281 48.4799805,17.319336 L48.4799805,6.5 L49.9799805,6.5 L49.9799805,18.6269531 Z M61.5,4 L2.5,4 L2.5,2.5 L61.5,2.5 L61.5,4 Z"/>
    <path fill="#000" d="M24.7006836,15.0898438 C24.1660156,15.0898438 23.6713867,14.7446289 23.5063476,14.2070313 C23.3032226,13.5473633 23.6733399,12.8476563 24.3334961,12.6450195 L24.3618164,12.6362305 C25.0214844,12.4326173 25.7211914,12.8032226 25.9243164,13.4633789 C26.1274414,14.1230469 25.7573242,14.8222656 25.097168,15.0253906 L25.0683594,15.0341798 C24.946289,15.0717774 24.8222656,15.0898438 24.7006836,15.0898438 Z"/>
  </g>
</svg>
