<svg xmlns="http://www.w3.org/2000/svg" width="64" height="64" viewBox="0 0 64 64">
  <g fill="none">
    <path fill="#EC7B53" d="M32,2.461914 C31.9555664,2.413086 31.909668,2.36572263 31.862793,2.31884763 C31.1518555,3.02490237 30.7080078,4.0200195 30.7080078,5.12451175 C30.7080078,7.17138675 32.7749024,9.18994137 34.5625,10.5532226 C36.3500976,9.18994137 38.4169923,7.17138675 38.4169923,5.12451175 C38.4169923,2.98486325 36.7529298,1.25 34.7001953,1.25 C33.6367188,1.25 32.6772461,1.71582025 32,2.461914 Z"/>
    <path fill="#EC7B53" d="M57.0170899,57.538086 L57.0170899,23.75 L19.6704101,23.75 L19.6704101,57.538086 C19.6704101,60.4165039 22.0039063,62.75 24.8823243,62.75 L51.8051758,62.75 C54.6835938,62.75 57.0170899,60.4165039 57.0170899,57.538086 Z" opacity=".5"/>
    <polygon fill="#FFF" points="28 23.75 36 23.75 36 62.75 28 62.75"/>
    <path fill="#57C2F1" d="M62.75,21.75 L62.75,14.25 C62.75,13.1455078 61.8544922,12.25 60.75,12.25 L16.9995118,12.25 C15.8950195,12.25 14.9995118,13.1455078 14.9995118,14.25 L14.9995118,21.75 C14.9995118,22.8544922 15.8950195,23.75 16.9995118,23.75 L60.75,23.75 C61.8544922,23.75 62.75,22.8544922 62.75,21.75 Z"/>
    <path fill="#221E1F" d="M60.75,11 L48.5009765,11 C49.4448242,9.83886725 50.0117187,8.35986325 50.0117187,6.75 C50.0117187,3.027832 46.9833985,0 43.2617187,0 C42.571289,0 42.0117187,0.55957025 42.0117187,1.25 C42.0117187,1.94042975 42.571289,2.5 43.2617187,2.5 C45.6054687,2.5 47.5117187,4.40673825 47.5117187,6.75 C47.5117187,9.09326175 45.6054687,11 43.2617187,11 L36.0209961,11 C37.8300781,9.49023438 39.6669922,7.39794925 39.6669922,5.12451175 C39.6669922,2.29882812 37.4389649,0 34.7001952,0 C33.737793,0 32.7983399,0.2924805 32,0.824707 C31.2016601,0.2924805 30.2626952,0 29.2998047,0 C26.5610351,0 24.3330077,2.29882812 24.3330077,5.12451175 C24.3330077,7.39794925 26.1694336,9.49023438 27.9790039,11 L20.7382812,11 C18.3945312,11 16.4882812,9.09326175 16.4882812,6.75 C16.4882812,4.40673825 18.3945312,2.5 20.7382812,2.5 C21.4282226,2.5 21.9882812,1.94042975 21.9882812,1.25 C21.9882812,0.55957025 21.4282226,0 20.7382812,0 C17.0161132,0 13.9882812,3.027832 13.9882812,6.75 C13.9882812,8.35986325 14.5551757,9.83886725 15.4990235,11 L3.25,11 C1.45800775,11 -5.68434189e-14,12.4580078 -5.68434189e-14,14.25 L-5.68434189e-14,21.75 C-5.68434189e-14,23.5419922 1.45800775,25 3.25,25 L5.73291012,25 L5.73291012,57.538086 C5.73291012,61.1010742 8.631836,64 12.1948242,64 L51.8051757,64 C55.368164,64 58.2666015,61.1010742 58.2666015,57.538086 L58.2666015,25 L60.75,25 C62.5419922,25 64,23.5419922 64,21.75 L64,14.25 C64,12.4580078 62.5419922,11 60.75,11 Z M29.2998047,2.5 C29.9746094,2.5 30.6049805,2.784668 31.0742187,3.30224612 C31.3115235,3.56298825 31.647461,3.711914 32,3.711914 C32.352539,3.711914 32.6884765,3.5634765 32.925293,3.30224612 C33.3950195,2.78515625 34.0253906,2.5 34.7001952,2.5 C36.0605469,2.5 37.1669922,3.67724612 37.1669922,5.12451175 C37.1669922,7.0268555 34.2109375,9.4643555 32,10.805664 C29.7885742,9.46386725 26.8330077,7.02636725 26.8330077,5.12451175 C26.8330077,3.67724612 27.9399414,2.5 29.2998047,2.5 Z M8.23291012,57.538086 L8.23291012,25 L11.6132812,25 L11.6132812,32.625 C11.6132812,33.3154297 12.1728515,33.875 12.8632812,33.875 C13.5532226,33.875 14.1132812,33.3154297 14.1132812,32.625 L14.1132812,25 L26.75,25 L26.75,61.5 L12.1948242,61.5 C10.0102539,61.5 8.23291012,59.7226562 8.23291012,57.538086 Z M55.7670899,57.538086 C55.7670899,59.7226562 53.9897461,61.5 51.8051757,61.5 L37.25,61.5 L37.25,53.7895508 C37.25,53.0991211 36.6904297,52.5395508 36,52.5395508 C35.3095702,52.5395508 34.75,53.0991211 34.75,53.7895508 L34.75,61.5 L29.25,61.5 L29.25,25 L34.75,25 L34.75,43.875 C34.75,44.5654297 35.3095702,45.125 36,45.125 C36.6904297,45.125 37.25,44.5654297 37.25,43.875 L37.25,25 L55.7670899,25 L55.7670899,57.538086 Z M61.5,21.75 C61.5,22.1635742 61.1635742,22.5 60.75,22.5 L3.25,22.5 C2.83642575,22.5 2.5,22.1635742 2.5,21.75 L2.5,14.25 C2.5,13.8364258 2.83642575,13.5 3.25,13.5 L60.75,13.5 C61.1635742,13.5 61.5,13.8364258 61.5,14.25 L61.5,21.75 Z"/>
    <path fill="#000" d="M36 47.6225586C35.6708985 47.6225586 35.3486328 47.7563476 35.116211 47.9887695 34.883789 48.2211914 34.75 48.5439453 34.75 48.8725586 34.75 49.2011719 34.883789 49.5239258 35.116211 49.7563476 35.3486328 49.9887695 35.6708985 50.1225586 36 50.1225586 36.3286133 50.1225586 36.6513673 49.9887695 36.883789 49.7563476 37.116211 49.5239258 37.25 49.2011719 37.25 48.8725586 37.25 48.5439453 37.116211 48.2211914 36.883789 47.9887695 36.6513673 47.7563476 36.3286133 47.6225586 36 47.6225586zM48 34.4858399C48.6904297 34.4858399 49.25 33.9262695 49.25 33.2358399L49.25 31.5092774C49.25 30.819336 48.6904297 30.2592774 48 30.2592774 47.3095703 30.2592774 46.75 30.819336 46.75 31.5092774L46.75 33.2358399C46.75 33.9262695 47.3095703 34.4858399 48 34.4858399zM48 42.7597656C48.6904297 42.7597656 49.25 42.199707 49.25 41.5097656L49.25 39.7832031C49.25 39.0927735 48.6904297 38.5332031 48 38.5332031 47.3095703 38.5332031 46.75 39.0927735 46.75 39.7832031L46.75 41.5097656C46.75 42.199707 47.3095703 42.7597656 48 42.7597656zM51.2734375 37.7597656L53 37.7597656C53.6904297 37.7597656 54.25 37.199707 54.25 36.5097656 54.25 35.819336 53.6904297 35.2597656 53 35.2597656L51.2734375 35.2597656C50.5830078 35.2597656 50.0234375 35.819336 50.0234375 36.5097656 50.0234375 37.199707 50.5830078 37.7597656 51.2734375 37.7597656zM43 37.7597656L44.7265625 37.7597656C45.4165039 37.7597656 45.9765625 37.199707 45.9765625 36.5097656 45.9765625 35.819336 45.4165039 35.2597656 44.7265625 35.2597656L43 35.2597656C42.3095703 35.2597656 41.75 35.819336 41.75 36.5097656 41.75 37.199707 42.3095703 37.7597656 43 37.7597656zM17 44.7661132C16.3095703 44.7661132 15.75 45.3256836 15.75 46.0161132L15.75 47.7421875C15.75 48.4326172 16.3095703 48.9921875 17 48.9921875 17.6904298 48.9921875 18.25 48.4326172 18.25 47.7421875L18.25 46.0161132C18.25 45.3256836 17.6904298 44.7661132 17 44.7661132L17 44.7661132zM17 53.0395508C16.3095703 53.0395508 15.75 53.5991211 15.75 54.2895508L15.75 56.0161133C15.75 56.7060548 16.3095703 57.2661133 17 57.2661133 17.6904298 57.2661133 18.25 56.7060548 18.25 56.0161133L18.25 54.2895508C18.25 53.5991211 17.6904298 53.0395508 17 53.0395508zM22 49.7661133L20.2734375 49.7661133C19.5830078 49.7661133 19.0234375 50.3256836 19.0234375 51.0161133 19.0234375 51.7060548 19.5830078 52.2661133 20.2734375 52.2661133L22 52.2661133C22.6904297 52.2661133 23.25 51.7060548 23.25 51.0161133 23.25 50.3256836 22.6904297 49.7661133 22 49.7661133zM13.7265625 49.7661133L12 49.7661133C11.3095703 49.7661133 10.75 50.3256836 10.75 51.0161133 10.75 51.7060548 11.3095703 52.2661133 12 52.2661133L13.7265625 52.2661133C14.4165039 52.2661133 14.9765625 51.7060548 14.9765625 51.0161133 14.9765625 50.3256836 14.4165039 49.7661133 13.7265625 49.7661133zM12.8637695 38.1850586C13.1923828 38.1850586 13.5136719 38.0512695 13.7475586 37.8188476 13.9799805 37.5864258 14.1137695 37.2636719 14.1137695 36.9350586 14.1137695 36.6064453 13.9799805 36.2836914 13.7475586 36.0512695 13.5136719 35.8188476 13.1923828 35.6850586 12.8637695 35.6850586 12.534668 35.6850586 12.2124024 35.8188476 11.9785156 36.0512695 11.7460938 36.2836914 11.6137695 36.6064453 11.6137695 36.9350586 11.6137695 37.2636719 11.7460938 37.5864258 11.9785156 37.8188476 12.2124024 38.0512695 12.5336914 38.1850586 12.8637695 38.1850586z"/>
  </g>
</svg>
